<svg width="137" height="19" viewBox="0 0 137 19" fill="none" xmlns="http://www.w3.org/2000/svg">
<path d="M5.3257 18.4551C4.21833 18.4551 3.33091 18.2731 2.66345 17.909C2.01116 17.5297 1.4423 16.9685 0.956872 16.2252L0.638312 17.5677H0.183225V11.3785H0.797592C0.797592 13.4415 1.15408 15.0723 1.86705 16.2707C2.59518 17.4691 3.67222 18.0683 5.09816 18.0683C5.76562 18.0683 6.34965 17.8862 6.85024 17.5222C7.35084 17.1429 7.73008 16.6499 7.98796 16.0431C8.24584 15.4363 8.37478 14.7916 8.37478 14.109C8.37478 13.2747 8.18516 12.5845 7.80592 12.0384C7.44186 11.4771 6.98677 11.0372 6.44067 10.7186C5.89456 10.4001 5.17401 10.0512 4.279 9.67192C3.35366 9.27751 2.61794 8.92102 2.07183 8.60246C1.52573 8.26873 1.06306 7.82882 0.68382 7.28271C0.319751 6.72144 0.137716 6.01605 0.137716 5.16656C0.137716 4.31707 0.334921 3.551 0.729329 2.86837C1.13891 2.18574 1.68501 1.65481 2.36764 1.27557C3.06544 0.896331 3.84667 0.706711 4.71134 0.706711C5.24227 0.706711 5.76562 0.797729 6.28138 0.979764C6.81232 1.1618 7.25982 1.39693 7.62389 1.68515C7.98796 1.9582 8.20792 2.23125 8.28377 2.5043L8.53406 0.752221H8.9664V5.28033H8.44305C8.44305 4.5977 8.32169 3.94541 8.07898 3.32346C7.83626 2.70151 7.45702 2.19333 6.94126 1.79892C6.44066 1.40451 5.81871 1.20731 5.07541 1.20731C4.11972 1.20731 3.33849 1.52587 2.73171 2.16299C2.1401 2.80011 1.84429 3.68753 1.84429 4.82524C1.84429 5.47754 2.01116 6.03122 2.34489 6.48631C2.67862 6.92623 3.08819 7.2903 3.57362 7.57852C4.07421 7.86674 4.74168 8.20047 5.576 8.57971C6.54685 9.01963 7.32808 9.4292 7.9197 9.80844C8.52648 10.1725 9.03466 10.6731 9.44424 11.3102C9.86898 11.9322 10.0814 12.7134 10.0814 13.6539C10.0814 14.4124 9.8614 15.1709 9.42148 15.9294C8.98156 16.6727 8.39754 17.2794 7.6694 17.7497C6.94126 18.22 6.16003 18.4551 5.3257 18.4551ZM26.4442 17.0898C26.5504 17.4842 26.8234 17.6814 27.2634 17.6814C27.5516 17.6814 27.9308 17.598 28.4011 17.4311V18H22.9173V17.4311C23.3572 17.5828 23.7364 17.6587 24.055 17.6587C24.4191 17.6587 24.6011 17.5297 24.6011 17.2719C24.6011 17.196 24.5935 17.1353 24.5784 17.0898L22.5305 10.6048H17.7065C17.1604 12.4252 16.6371 14.2455 16.1365 16.0659L15.9772 16.6347C15.9469 16.7258 15.9317 16.8395 15.9317 16.9761C15.9317 17.416 16.2048 17.6359 16.7509 17.6359C17.0543 17.6359 17.4032 17.5677 17.7976 17.4311V18H13.0419V17.4311C13.406 17.5677 13.7549 17.6359 14.0886 17.6359C14.5437 17.6359 14.8698 17.4539 15.067 17.0898C15.1732 16.8775 15.2642 16.6575 15.3401 16.43L20.164 0.706711H21.4838L26.4442 17.0898ZM17.8203 10.1953H22.3939L20.0275 2.73185L17.8203 10.1953ZM49.0915 1.73066C48.8033 1.63964 48.5378 1.59413 48.2951 1.59413C48.0069 1.59413 47.7793 1.67756 47.6125 1.84443C47.4608 1.99612 47.3849 2.22367 47.3849 2.52706V16.6347C47.3849 16.9381 47.4608 17.1733 47.6125 17.3401C47.7793 17.4918 48.0069 17.5677 48.2951 17.5677C48.5378 17.5677 48.8033 17.5222 49.0915 17.4311V18H43.9718V17.4311C44.2752 17.5222 44.5407 17.5677 44.7682 17.5677C45.0564 17.5677 45.2764 17.4918 45.4281 17.3401C45.5949 17.1733 45.6784 16.9381 45.6784 16.6347V2.04922L40.0808 18.4551H39.7395L33.6413 3.50549L33.6641 16.6347C33.6641 16.923 33.8006 17.1505 34.0737 17.3174C34.3619 17.4842 34.7108 17.5677 35.1204 17.5677C35.4238 17.5677 35.7271 17.5222 36.0305 17.4311V18H30.8881V17.4311C31.1763 17.5222 31.4721 17.5677 31.7755 17.5677C32.1699 17.5677 32.496 17.4842 32.7539 17.3174C33.0118 17.1505 33.1407 16.923 33.1407 16.6347V2.52706C33.1407 2.23884 33.0345 2.01129 32.8222 1.84443C32.6098 1.67756 32.3216 1.59413 31.9575 1.59413C31.6996 1.59413 31.419 1.63964 31.1156 1.73066V1.1618H34.6425L40.5131 15.6791L45.2233 1.1618H49.0915V1.73066ZM65.2154 17.0898C65.3216 17.4842 65.5947 17.6814 66.0346 17.6814C66.3228 17.6814 66.7021 17.598 67.1723 17.4311V18H61.6885V17.4311C62.1284 17.5828 62.5077 17.6587 62.8262 17.6587C63.1903 17.6587 63.3723 17.5297 63.3723 17.2719C63.3723 17.196 63.3648 17.1353 63.3496 17.0898L61.3017 10.6048H56.4778C55.9317 12.4252 55.4083 14.2455 54.9077 16.0659L54.7485 16.6347C54.7181 16.7258 54.7029 16.8395 54.7029 16.9761C54.7029 17.416 54.976 17.6359 55.5221 17.6359C55.8255 17.6359 56.1744 17.5677 56.5688 17.4311V18H51.8131V17.4311C52.1772 17.5677 52.5261 17.6359 52.8598 17.6359C53.3149 17.6359 53.6411 17.4539 53.8383 17.0898C53.9445 16.8775 54.0355 16.6575 54.1113 16.43L58.9353 0.706711H60.255L65.2154 17.0898ZM56.5916 10.1953H61.1652L58.7987 2.73185L56.5916 10.1953ZM84.9502 1.13904V1.7079C84.6468 1.61688 84.3586 1.57138 84.0855 1.57138C83.7063 1.57138 83.3953 1.65481 83.1526 1.82167C82.9251 1.98854 82.8113 2.21608 82.8113 2.5043V18.4551H82.2879L72.2305 2.82286L72.2533 16.6347C72.2533 16.923 72.3898 17.1505 72.6629 17.3174C72.9511 17.4842 73.3 17.5677 73.7096 17.5677C74.0281 17.5677 74.3315 17.5222 74.6197 17.4311V18H69.6593V17.4311C69.9475 17.5222 70.2357 17.5677 70.524 17.5677C70.888 17.5677 71.1762 17.4842 71.3886 17.3174C71.6162 17.1505 71.7299 16.923 71.7299 16.6347V2.52706C71.7299 2.23884 71.6162 2.01129 71.3886 1.84443C71.1611 1.67756 70.8653 1.59413 70.5012 1.59413C70.2433 1.59413 69.9627 1.63964 69.6593 1.73066V1.1618H73.2317L82.2879 14.8827V2.5043C82.2879 2.21608 82.159 1.98854 81.9011 1.82167C81.6432 1.65481 81.3171 1.57138 80.9227 1.57138C80.6193 1.57138 80.3235 1.61688 80.0353 1.7079V1.13904H84.9502ZM99.8122 1.82167C99.7666 2.1099 99.7439 2.48155 99.7439 2.93663C99.7439 3.83164 99.8501 4.52944 100.062 5.03003H99.6984C99.5315 4.71147 99.4102 4.29431 99.3343 3.77855C99.2281 3.23244 99.084 2.80769 98.902 2.5043C98.7199 2.18574 98.3483 1.92028 97.787 1.7079C97.2257 1.49553 96.3838 1.38934 95.2613 1.38934C95.0641 1.38934 94.8441 1.40451 94.6014 1.43485V16.6347C94.6014 16.9381 94.6773 17.1733 94.829 17.3401C94.9958 17.4918 95.2234 17.5677 95.5116 17.5677C95.7543 17.5677 96.0198 17.5222 96.308 17.4311V18H91.1883V17.4311C91.4917 17.5222 91.7571 17.5677 91.9847 17.5677C92.2729 17.5677 92.4928 17.4918 92.6445 17.3401C92.8114 17.1733 92.8948 16.9381 92.8948 16.6347V1.43485C92.6521 1.40451 92.4398 1.38934 92.2577 1.38934C91.1352 1.38934 90.2933 1.49553 89.732 1.7079C89.1707 1.92028 88.7991 2.18574 88.617 2.5043C88.435 2.80769 88.2909 3.23244 88.1847 3.77855C88.1088 4.29431 87.9875 4.71147 87.8206 5.03003H87.4566C87.6689 4.52944 87.7751 3.83164 87.7751 2.93663C87.7751 2.48155 87.7524 2.1099 87.7069 1.82167L87.6386 1.1618H99.8804L99.8122 1.82167ZM118.293 1.73066C117.989 1.63964 117.724 1.59413 117.496 1.59413C117.208 1.59413 116.981 1.67756 116.814 1.84443C116.662 1.99612 116.586 2.22367 116.586 2.52706V16.6347C116.586 16.9381 116.662 17.1733 116.814 17.3401C116.981 17.4918 117.208 17.5677 117.496 17.5677C117.739 17.5677 118.005 17.5222 118.293 17.4311V18H113.173V17.4311C113.476 17.5222 113.742 17.5677 113.969 17.5677C114.258 17.5677 114.478 17.4918 114.629 17.3401C114.796 17.1733 114.88 16.9381 114.88 16.6347V8.83001H106.438V16.6347C106.438 16.9381 106.514 17.1733 106.665 17.3401C106.832 17.4918 107.067 17.5677 107.371 17.5677C107.598 17.5677 107.856 17.5222 108.144 17.4311V18H103.025V17.4311C103.313 17.5222 103.578 17.5677 103.821 17.5677C104.109 17.5677 104.329 17.4918 104.481 17.3401C104.648 17.1733 104.731 16.9381 104.731 16.6347V2.52706C104.731 2.22367 104.648 1.99612 104.481 1.84443C104.329 1.67756 104.109 1.59413 103.821 1.59413C103.578 1.59413 103.313 1.63964 103.025 1.73066V1.1618H108.144V1.73066C107.856 1.63964 107.591 1.59413 107.348 1.59413C107.06 1.59413 106.832 1.67756 106.665 1.84443C106.514 1.99612 106.438 2.22367 106.438 2.52706V8.37492H114.88V2.52706C114.88 2.22367 114.796 1.99612 114.629 1.84443C114.478 1.67756 114.258 1.59413 113.969 1.59413C113.742 1.59413 113.476 1.63964 113.173 1.73066V1.1618H118.293V1.73066ZM134.425 17.0898C134.531 17.4842 134.804 17.6814 135.244 17.6814C135.532 17.6814 135.912 17.598 136.382 17.4311V18H130.898V17.4311C131.338 17.5828 131.717 17.6587 132.036 17.6587C132.4 17.6587 132.582 17.5297 132.582 17.2719C132.582 17.196 132.574 17.1353 132.559 17.0898L130.511 10.6048H125.687C125.141 12.4252 124.618 14.2455 124.117 16.0659L123.958 16.6347C123.928 16.7258 123.913 16.8395 123.913 16.9761C123.913 17.416 124.186 17.6359 124.732 17.6359C125.035 17.6359 125.384 17.5677 125.778 17.4311V18H121.023V17.4311C121.387 17.5677 121.736 17.6359 122.069 17.6359C122.525 17.6359 122.851 17.4539 123.048 17.0898C123.154 16.8775 123.245 16.6575 123.321 16.43L128.145 0.706711H129.465L134.425 17.0898ZM125.801 10.1953H130.375L128.008 2.73185L125.801 10.1953Z" fill="black"/>
<path d="M2.66345 17.909L2.41204 18.3414L2.42402 18.3479L2.66345 17.909ZM0.956872 16.2252L1.37551 15.9518L0.739099 14.9773L0.470381 16.1097L0.956872 16.2252ZM0.638312 17.5677V18.0677H1.03355L1.1248 17.6831L0.638312 17.5677ZM0.183225 17.5677H-0.316775V18.0677H0.183225V17.5677ZM0.183225 11.3785V10.8785H-0.316775V11.3785H0.183225ZM0.797592 11.3785H1.29759V10.8785H0.797592V11.3785ZM1.86705 16.2707L1.43732 16.5263L1.43974 16.5303L1.86705 16.2707ZM6.85024 17.5222L7.14439 17.9266L7.15217 17.9207L6.85024 17.5222ZM7.98796 16.0431L7.52779 15.8476L7.98796 16.0431ZM7.80592 12.0384L7.38644 12.3105L7.39074 12.3171L7.39524 12.3236L7.80592 12.0384ZM6.44067 10.7186L6.6926 10.2867H6.6926L6.44067 10.7186ZM4.279 9.67192L4.08295 10.1319L4.08393 10.1323L4.279 9.67192ZM2.07183 8.60246L1.81105 9.02919L1.8199 9.03435L2.07183 8.60246ZM0.68382 7.28271L0.264339 7.55481L0.268634 7.56143L0.273135 7.56791L0.68382 7.28271ZM0.729329 2.86837L0.300524 2.61109L0.296396 2.61823L0.729329 2.86837ZM2.36764 1.27557L2.12887 0.836239L2.12482 0.838491L2.36764 1.27557ZM6.28138 0.979764L6.11497 1.45128L6.11922 1.45274L6.28138 0.979764ZM7.62389 1.68515L7.31343 2.0773L7.32389 2.08515L7.62389 1.68515ZM8.28377 2.5043L7.80201 2.63812L8.77874 2.57501L8.28377 2.5043ZM8.53406 0.752221V0.252221H8.10042L8.03909 0.68151L8.53406 0.752221ZM8.9664 0.752221H9.4664V0.252221H8.9664V0.752221ZM8.9664 5.28033V5.78033H9.4664V5.28033H8.9664ZM8.44305 5.28033H7.94305V5.78033H8.44305V5.28033ZM6.94126 1.79892L6.63179 2.19171L6.63754 2.1961L6.94126 1.79892ZM2.73171 2.16299L2.36961 1.81813L2.36531 1.82276L2.73171 2.16299ZM2.34489 6.48631L1.94163 6.78203L1.94654 6.7885L2.34489 6.48631ZM3.57362 7.57852L3.31833 8.00848L3.32414 8.01183L3.57362 7.57852ZM5.576 8.57971L5.3691 9.03489L5.36964 9.03514L5.576 8.57971ZM7.9197 9.80844L7.64986 10.2294L7.6561 10.2334L7.66245 10.2372L7.9197 9.80844ZM9.44424 11.3102L9.02348 11.5807L9.03134 11.5922L9.44424 11.3102ZM9.42148 15.9294L9.85179 16.184L9.854 16.1802L9.42148 15.9294ZM5.3257 17.9551C4.2664 17.9551 3.47095 17.7799 2.90287 17.47L2.42402 18.3479C3.19086 18.7662 4.17026 18.9551 5.3257 18.9551V17.9551ZM2.91476 17.4767C2.34079 17.143 1.8258 16.6413 1.37551 15.9518L0.538237 16.4986C1.05879 17.2957 1.68152 17.9165 2.41214 18.3412L2.91476 17.4767ZM0.470381 16.1097L0.15182 17.4522L1.1248 17.6831L1.44336 16.3406L0.470381 16.1097ZM0.638312 17.0677H0.183225V18.0677H0.638312V17.0677ZM0.683225 17.5677V11.3785H-0.316775V17.5677H0.683225ZM0.183225 11.8785H0.797592V10.8785H0.183225V11.8785ZM0.297592 11.3785C0.297592 13.4913 0.661404 15.2221 1.43734 16.5263L2.29675 16.015C1.64675 14.9225 1.29759 13.3918 1.29759 11.3785H0.297592ZM1.43974 16.5303C2.26042 17.881 3.5012 18.5683 5.09816 18.5683V17.5683C3.84324 17.5683 2.92995 17.0571 2.29435 16.011L1.43974 16.5303ZM5.09816 18.5683C5.86254 18.5683 6.55146 18.3577 7.14433 17.9265L6.55616 17.1178C6.14784 17.4148 5.6687 17.5683 5.09816 17.5683V18.5683ZM7.15217 17.9207C7.72584 17.4861 8.15788 16.9216 8.44812 16.2387L7.52779 15.8476C7.30227 16.3782 6.97584 16.7997 6.54831 17.1236L7.15217 17.9207ZM8.44812 16.2387C8.73323 15.5679 8.87478 14.8564 8.87478 14.109H7.87478C7.87478 14.7269 7.75846 15.3048 7.52779 15.8476L8.44812 16.2387ZM8.87478 14.109C8.87478 13.1988 8.6673 12.4022 8.21661 11.7532L7.39524 12.3236C7.70303 12.7668 7.87478 13.3505 7.87478 14.109H8.87478ZM8.2254 11.7663C7.8213 11.1433 7.31021 10.647 6.6926 10.2867L6.18873 11.1505C6.66333 11.4274 7.06241 11.8109 7.38644 12.3105L8.2254 11.7663ZM6.6926 10.2867C6.1212 9.95341 5.37944 9.59517 4.47408 9.21154L4.08393 10.1323C4.96858 10.5071 5.66792 10.8467 6.18873 11.1505L6.6926 10.2867ZM4.47505 9.21195C3.55912 8.82156 2.84454 8.47436 2.32377 8.17057L1.8199 9.03435C2.39133 9.36769 3.1482 9.73346 4.08295 10.1319L4.47505 9.21195ZM2.33256 8.17582C1.84804 7.87972 1.4357 7.48883 1.09451 6.99751L0.273135 7.56791C0.690419 8.1688 1.20343 8.65774 1.81111 9.0291L2.33256 8.17582ZM1.1033 7.01062C0.804294 6.54965 0.637716 5.94537 0.637716 5.16656H-0.362284C-0.362284 6.08674 -0.164792 6.89323 0.264339 7.55481L1.1033 7.01062ZM0.637716 5.16656C0.637716 4.39785 0.815179 3.71923 1.16226 3.11851L0.296396 2.61823C-0.145338 3.38277 -0.362284 4.23628 -0.362284 5.16656H0.637716ZM1.15808 3.12562C1.52344 2.51667 2.00606 2.04843 2.61046 1.71265L2.12482 0.838491C1.36397 1.26119 0.754369 1.85481 0.300582 2.61112L1.15808 3.12562ZM2.6064 1.71488C3.22453 1.37894 3.92249 1.20671 4.71134 1.20671V0.206711C3.77085 0.206711 2.90635 0.413722 2.12888 0.836258L2.6064 1.71488ZM4.71134 1.20671C5.18388 1.20671 5.65103 1.28751 6.11497 1.45126L6.44779 0.508268C5.88021 0.307945 5.30066 0.206711 4.71134 0.206711V1.20671ZM6.11922 1.45274C6.60738 1.6201 7.0021 1.83061 7.31354 2.07717L7.93424 1.29313C7.51754 0.963238 7.01726 0.703493 6.44355 0.506791L6.11922 1.45274ZM7.32389 2.08515C7.64927 2.32919 7.76885 2.51876 7.80201 2.63812L8.76552 2.37048C8.64699 1.94374 8.32664 1.58721 7.92389 1.28515L7.32389 2.08515ZM8.77874 2.57501L9.02904 0.822931L8.03909 0.68151L7.78879 2.43359L8.77874 2.57501ZM8.53406 1.25222H8.9664V0.252221H8.53406V1.25222ZM8.4664 0.752221V5.28033H9.4664V0.752221H8.4664ZM8.9664 4.78033H8.44305V5.78033H8.9664V4.78033ZM8.94305 5.28033C8.94305 4.53694 8.8106 3.82289 8.54477 3.14169L7.61319 3.50523C7.83278 4.06793 7.94305 4.65847 7.94305 5.28033H8.94305ZM8.54477 3.14169C8.26976 2.43698 7.8356 1.85339 7.24498 1.40174L6.63754 2.1961C7.07845 2.53327 7.40277 2.96603 7.61319 3.50523L8.54477 3.14169ZM7.2507 1.40617C6.64774 0.931119 5.91148 0.707307 5.07541 0.707307V1.70731C5.72594 1.70731 6.23359 1.8779 6.63182 2.19167L7.2507 1.40617ZM5.07541 0.707307C3.99599 0.707307 3.07947 1.07284 2.36964 1.81816L3.09378 2.50782C3.59752 1.97889 4.24345 1.70731 5.07541 1.70731V0.707307ZM2.36531 1.82276C1.66398 2.57804 1.34429 3.60137 1.34429 4.82524H2.34429C2.34429 3.77369 2.61621 3.02218 3.09811 2.50321L2.36531 1.82276ZM1.34429 4.82524C1.34429 5.56669 1.5356 6.22825 1.94168 6.78199L2.74809 6.19063C2.48671 5.8342 2.34429 5.38838 2.34429 4.82524H1.34429ZM1.94654 6.7885C2.32016 7.281 2.77871 7.68803 3.31835 8.00845L3.82889 7.14859C3.39768 6.89256 3.03708 6.57146 2.74323 6.18412L1.94654 6.7885ZM3.32414 8.01183C3.84414 8.31123 4.52759 8.65239 5.3691 9.03489L5.7829 8.12453C4.95576 7.74855 4.30429 7.42225 3.8231 7.14521L3.32414 8.01183ZM5.36964 9.03514C6.32851 9.46962 7.08606 9.86797 7.64986 10.2294L8.18953 9.3875C7.57011 8.99044 6.76519 8.56963 5.78237 8.12428L5.36964 9.03514ZM7.66245 10.2372C8.19875 10.559 8.65263 11.0035 9.02365 11.5806L9.86483 11.0399C9.41668 10.3427 8.8542 9.78605 8.17694 9.3797L7.66245 10.2372ZM9.03134 11.5922C9.38664 12.1125 9.58136 12.7889 9.58136 13.6539H10.5814C10.5814 12.6379 10.3513 11.7519 9.85714 11.0282L9.03134 11.5922ZM9.58136 13.6539C9.58136 14.3113 9.39167 14.9842 8.98897 15.6785L9.854 16.1802C10.3311 15.3576 10.5814 14.5135 10.5814 13.6539H9.58136ZM8.99119 15.6747C8.5909 16.3511 8.06141 16.9013 7.39814 17.3297L7.94066 18.1697C8.73367 17.6576 9.37223 16.9943 9.85177 16.184L8.99119 15.6747ZM7.39814 17.3297C6.74752 17.7499 6.05992 17.9551 5.3257 17.9551V18.9551C6.26014 18.9551 7.135 18.69 7.94066 18.1697L7.39814 17.3297ZM26.4442 17.0898L26.927 16.9598L26.925 16.9524L26.9228 16.9449L26.4442 17.0898ZM28.4011 17.4311H28.9011V16.7232L28.2339 16.9599L28.4011 17.4311ZM28.4011 18V18.5H28.9011V18H28.4011ZM22.9173 18H22.4173V18.5H22.9173V18ZM22.9173 17.4311L23.0803 16.9585L22.4173 16.7298V17.4311H22.9173ZM24.5784 17.0898L24.1015 17.2404L24.104 17.2479L24.5784 17.0898ZM22.5305 10.6048L23.0073 10.4543L22.8969 10.1048H22.5305V10.6048ZM17.7065 10.6048V10.1048H17.3345L17.2276 10.4612L17.7065 10.6048ZM16.1365 16.0659L16.618 16.2007L16.6186 16.1985L16.1365 16.0659ZM15.9772 16.6347L16.4516 16.7929L16.4554 16.7813L16.4587 16.7696L15.9772 16.6347ZM17.7976 17.4311H18.2976V16.729L17.634 16.9586L17.7976 17.4311ZM17.7976 18V18.5H18.2976V18H17.7976ZM13.0419 18H12.5419V18.5H13.0419V18ZM13.0419 17.4311L13.2175 16.963L12.5419 16.7096V17.4311H13.0419ZM15.067 17.0898L15.5067 17.328L15.5106 17.3208L15.5143 17.3134L15.067 17.0898ZM15.3401 16.43L15.8146 16.5881L15.8181 16.5766L15.3401 16.43ZM20.164 0.706711V0.206711H19.7944L19.686 0.560057L20.164 0.706711ZM21.4838 0.706711L21.9623 0.561818L21.8548 0.206711H21.4838V0.706711ZM17.8203 10.1953L17.3408 10.0535L17.151 10.6953H17.8203V10.1953ZM22.3939 10.1953V10.6953H23.077L22.8706 10.0441L22.3939 10.1953ZM20.0275 2.73185L20.5041 2.58073L20.0108 1.02504L19.548 2.59005L20.0275 2.73185ZM25.9614 17.2198C26.0378 17.5035 26.1876 17.7596 26.4359 17.9389C26.6804 18.1154 26.9703 18.1814 27.2634 18.1814V17.1814C27.1165 17.1814 27.05 17.1488 27.0214 17.1282C26.9966 17.1103 26.9568 17.0706 26.927 16.9598L25.9614 17.2198ZM27.2634 18.1814C27.6355 18.1814 28.0776 18.0765 28.5683 17.9024L28.2339 16.9599C27.784 17.1196 27.4676 17.1814 27.2634 17.1814V18.1814ZM27.9011 17.4311V18H28.9011V17.4311H27.9011ZM28.4011 17.5H22.9173V18.5H28.4011V17.5ZM23.4173 18V17.4311H22.4173V18H23.4173ZM22.7543 17.9038C23.2247 18.066 23.6618 18.1587 24.055 18.1587V17.1587C23.8111 17.1587 23.4897 17.0996 23.0803 16.9585L22.7543 17.9038ZM24.055 18.1587C24.2809 18.1587 24.5398 18.1214 24.7536 17.97C24.999 17.7961 25.1011 17.5339 25.1011 17.2719H24.1011C24.1011 17.2777 24.1002 17.2588 24.1146 17.2282C24.1302 17.195 24.1539 17.1693 24.1756 17.154C24.1941 17.1408 24.2003 17.1429 24.179 17.1479C24.1576 17.1529 24.1181 17.1587 24.055 17.1587V18.1587ZM25.1011 17.2719C25.1011 17.1697 25.0918 17.049 25.0527 16.9317L24.104 17.2479C24.1013 17.2397 24.0999 17.234 24.0994 17.2316C24.0989 17.2291 24.099 17.2289 24.0993 17.2315C24.1 17.2371 24.1011 17.25 24.1011 17.2719H25.1011ZM25.0551 16.9393L23.0073 10.4543L22.0537 10.7554L24.1016 17.2404L25.0551 16.9393ZM22.5305 10.1048H17.7065V11.1048H22.5305V10.1048ZM17.2276 10.4612C16.6804 12.2852 16.156 14.1092 15.6544 15.9333L16.6186 16.1985C17.1182 14.3818 17.6405 12.5652 18.1855 10.7485L17.2276 10.4612ZM15.655 15.9311L15.4957 16.4999L16.4587 16.7696L16.618 16.2007L15.655 15.9311ZM15.5029 16.4766C15.45 16.6352 15.4317 16.8066 15.4317 16.9761H16.4317C16.4317 16.8725 16.4437 16.8163 16.4516 16.7929L15.5029 16.4766ZM15.4317 16.9761C15.4317 17.3052 15.5392 17.6318 15.8228 17.8603C16.0858 18.0722 16.4238 18.1359 16.7509 18.1359V17.1359C16.5318 17.1359 16.4602 17.0897 16.4502 17.0816C16.4484 17.0802 16.4476 17.0801 16.4449 17.0736C16.441 17.064 16.4317 17.0352 16.4317 16.9761H15.4317ZM16.7509 18.1359C17.1265 18.1359 17.5324 18.052 17.9611 17.9036L17.634 16.9586C17.2739 17.0833 16.982 17.1359 16.7509 17.1359V18.1359ZM17.2976 17.4311V18H18.2976V17.4311H17.2976ZM17.7976 17.5H13.0419V18.5H17.7976V17.5ZM13.5419 18V17.4311H12.5419V18H13.5419ZM12.8663 17.8993C13.2774 18.0535 13.6859 18.1359 14.0886 18.1359V17.1359C13.8238 17.1359 13.5345 17.0819 13.2175 16.963L12.8663 17.8993ZM14.0886 18.1359C14.3829 18.1359 14.666 18.0768 14.9182 17.936C15.1729 17.7938 15.368 17.584 15.5067 17.328L14.6274 16.8517C14.5689 16.9597 14.5023 17.0229 14.4308 17.0628C14.3569 17.1041 14.2494 17.1359 14.0886 17.1359V18.1359ZM15.5143 17.3134C15.6311 17.0797 15.7312 16.8378 15.8144 16.5881L14.8658 16.2718C14.7973 16.4772 14.7153 16.6752 14.6198 16.8662L15.5143 17.3134ZM15.8181 16.5766L20.642 0.853365L19.686 0.560057L14.8621 16.2833L15.8181 16.5766ZM20.164 1.20671H21.4838V0.206711H20.164V1.20671ZM21.0052 0.851604L25.9657 17.2347L26.9228 16.9449L21.9623 0.561818L21.0052 0.851604ZM17.8203 10.6953H22.3939V9.69527H17.8203V10.6953ZM22.8706 10.0441L20.5041 2.58073L19.5509 2.88297L21.9173 10.3464L22.8706 10.0441ZM19.548 2.59005L17.3408 10.0535L18.2998 10.3371L20.507 2.87364L19.548 2.59005ZM49.0915 1.73066L48.941 2.20745L49.5915 2.41289V1.73066H49.0915ZM47.6125 1.84443L47.966 2.19798V2.19798L47.6125 1.84443ZM47.6125 17.3401L47.2425 17.6765L47.2585 17.6941L47.2761 17.7101L47.6125 17.3401ZM49.0915 17.4311H49.5915V16.7489L48.941 16.9543L49.0915 17.4311ZM49.0915 18V18.5H49.5915V18H49.0915ZM43.9718 18H43.4718V18.5H43.9718V18ZM43.9718 17.4311L44.1155 16.9522L43.4718 16.7591V17.4311H43.9718ZM45.4281 17.3401L45.7816 17.6937L45.4281 17.3401ZM45.6784 2.04922H46.1784L45.2052 1.88776L45.6784 2.04922ZM40.0808 18.4551V18.9551H40.4385L40.554 18.6165L40.0808 18.4551ZM39.7395 18.4551L39.2765 18.6439L39.4034 18.9551H39.7395V18.4551ZM33.6413 3.50549L34.1043 3.31664L33.1413 3.50636L33.6413 3.50549ZM33.6641 16.6347H34.1641V16.6339L33.6641 16.6347ZM34.0737 17.3174L33.8129 17.7441L33.8231 17.7501L34.0737 17.3174ZM36.0305 17.4311H36.5305V16.7591L35.8869 16.9522L36.0305 17.4311ZM36.0305 18V18.5H36.5305V18H36.0305ZM30.8881 18H30.3881V18.5H30.8881V18ZM30.8881 17.4311L31.0386 16.9544L30.3881 16.7489V17.4311H30.8881ZM32.7539 17.3174L33.0255 17.7372L32.7539 17.3174ZM32.8222 1.84443L33.1311 1.45127L32.8222 1.84443ZM31.1156 1.73066H30.6156V2.40267L31.2593 2.20957L31.1156 1.73066ZM31.1156 1.1618V0.661798H30.6156V1.1618H31.1156ZM34.6425 1.1618L35.1061 0.974351L34.9797 0.661798H34.6425V1.1618ZM40.5131 15.6791L40.0496 15.8665L40.5647 17.1403L40.9887 15.8334L40.5131 15.6791ZM45.2233 1.1618V0.661798H44.8598L44.7477 1.00749L45.2233 1.1618ZM49.0915 1.1618H49.5915V0.661798H49.0915V1.1618ZM49.2421 1.25386C48.9166 1.15107 48.5996 1.09413 48.2951 1.09413V2.09413C48.476 2.09413 48.69 2.12821 48.941 2.20745L49.2421 1.25386ZM48.2951 1.09413C47.9055 1.09413 47.5396 1.21025 47.2589 1.49087L47.966 2.19798C48.0191 2.14488 48.1083 2.09413 48.2951 2.09413V1.09413ZM47.2589 1.49087C46.9804 1.76941 46.8849 2.14659 46.8849 2.52706H47.8849C47.8849 2.30074 47.9412 2.22284 47.966 2.19798L47.2589 1.49087ZM46.8849 2.52706V16.6347H47.8849V2.52706H46.8849ZM46.8849 16.6347C46.8849 17.0189 46.9818 17.3897 47.2425 17.6765L47.9825 17.0038C47.9397 16.9568 47.8849 16.8574 47.8849 16.6347H46.8849ZM47.2761 17.7101C47.5585 17.9667 47.9183 18.0677 48.2951 18.0677V17.0677C48.0955 17.0677 48.0002 17.0169 47.9488 16.9702L47.2761 17.7101ZM48.2951 18.0677C48.5996 18.0677 48.9166 18.0107 49.2421 17.9079L48.941 16.9543C48.69 17.0336 48.476 17.0677 48.2951 17.0677V18.0677ZM48.5915 17.4311V18H49.5915V17.4311H48.5915ZM49.0915 17.5H43.9718V18.5H49.0915V17.5ZM44.4718 18V17.4311H43.4718V18H44.4718ZM43.8281 17.9101C44.1613 18.01 44.4771 18.0677 44.7682 18.0677V17.0677C44.6042 17.0677 44.389 17.0343 44.1155 16.9522L43.8281 17.9101ZM44.7682 18.0677C45.1421 18.0677 45.5075 17.9678 45.7816 17.6937L45.0745 16.9866C45.0452 17.0158 44.9707 17.0677 44.7682 17.0677V18.0677ZM45.7816 17.6937C46.067 17.4083 46.1784 17.0311 46.1784 16.6347H45.1784C45.1784 16.8452 45.1229 16.9382 45.0745 16.9866L45.7816 17.6937ZM46.1784 16.6347V2.04922H45.1784V16.6347H46.1784ZM45.2052 1.88776L39.6076 18.2936L40.554 18.6165L46.1516 2.21067L45.2052 1.88776ZM40.0808 17.9551H39.7395V18.9551H40.0808V17.9551ZM40.2024 18.2662L34.1043 3.31664L33.1784 3.69434L39.2765 18.6439L40.2024 18.2662ZM33.1413 3.50636L33.1641 16.6356L34.1641 16.6339L34.1413 3.50463L33.1413 3.50636ZM33.1641 16.6347C33.1641 17.1189 33.4109 17.4983 33.8129 17.744L34.3344 16.8907C34.1904 16.8027 34.1641 16.727 34.1641 16.6347H33.1641ZM33.8231 17.7501C34.2032 17.9701 34.6429 18.0677 35.1204 18.0677V17.0677C34.7787 17.0677 34.5206 16.9984 34.3242 16.8847L33.8231 17.7501ZM35.1204 18.0677C35.4745 18.0677 35.8263 18.0144 36.1742 17.9101L35.8869 16.9522C35.628 17.0299 35.373 17.0677 35.1204 17.0677V18.0677ZM35.5305 17.4311V18H36.5305V17.4311H35.5305ZM36.0305 17.5H30.8881V18.5H36.0305V17.5ZM31.3881 18V17.4311H30.3881V18H31.3881ZM30.7375 17.9079C31.0746 18.0144 31.4212 18.0677 31.7755 18.0677V17.0677C31.523 17.0677 31.2779 17.0299 31.0386 16.9544L30.7375 17.9079ZM31.7755 18.0677C32.2392 18.0677 32.6666 17.9694 33.0255 17.7372L32.4823 16.8976C32.3254 16.9991 32.1006 17.0677 31.7755 17.0677V18.0677ZM33.0255 17.7372C33.4146 17.4854 33.6407 17.1055 33.6407 16.6347H32.6407C32.6407 16.7404 32.609 16.8156 32.4823 16.8976L33.0255 17.7372ZM33.6407 16.6347V2.52706H32.6407V16.6347H33.6407ZM33.6407 2.52706C33.6407 2.0973 33.4732 1.72004 33.1311 1.45127L32.5133 2.23759C32.5959 2.30255 32.6407 2.38037 32.6407 2.52706H33.6407ZM33.1311 1.45127C32.8043 1.19453 32.3948 1.09413 31.9575 1.09413V2.09413C32.2483 2.09413 32.4153 2.1606 32.5133 2.23759L33.1311 1.45127ZM31.9575 1.09413C31.6414 1.09413 31.3117 1.1498 30.9719 1.25174L31.2593 2.20957C31.5263 2.12948 31.7579 2.09413 31.9575 2.09413V1.09413ZM31.6156 1.73066V1.1618H30.6156V1.73066H31.6156ZM31.1156 1.6618H34.6425V0.661798H31.1156V1.6618ZM34.179 1.34925L40.0496 15.8665L40.9767 15.4916L35.1061 0.974351L34.179 1.34925ZM40.9887 15.8334L45.6989 1.31611L44.7477 1.00749L40.0375 15.5248L40.9887 15.8334ZM45.2233 1.6618H49.0915V0.661798H45.2233V1.6618ZM48.5915 1.1618V1.73066H49.5915V1.1618H48.5915ZM65.2154 17.0898L65.6982 16.9598L65.6962 16.9524L65.694 16.9449L65.2154 17.0898ZM67.1723 17.4311H67.6723V16.7232L67.0051 16.9599L67.1723 17.4311ZM67.1723 18V18.5H67.6723V18H67.1723ZM61.6885 18H61.1885V18.5H61.6885V18ZM61.6885 17.4311L61.8515 16.9585L61.1885 16.7298V17.4311H61.6885ZM63.3496 17.0898L62.8727 17.2404L62.8753 17.2479L63.3496 17.0898ZM61.3017 10.6048L61.7785 10.4543L61.6681 10.1048H61.3017V10.6048ZM56.4778 10.6048V10.1048H56.1058L55.9989 10.4612L56.4778 10.6048ZM54.9077 16.0659L55.3892 16.2007L55.3898 16.1985L54.9077 16.0659ZM54.7485 16.6347L55.2228 16.7929L55.2267 16.7813L55.2299 16.7696L54.7485 16.6347ZM56.5688 17.4311H57.0688V16.729L56.4052 16.9586L56.5688 17.4311ZM56.5688 18V18.5H57.0688V18H56.5688ZM51.8131 18H51.3131V18.5H51.8131V18ZM51.8131 17.4311L51.9887 16.963L51.3131 16.7096V17.4311H51.8131ZM53.8383 17.0898L54.2779 17.328L54.2818 17.3208L54.2855 17.3134L53.8383 17.0898ZM54.1113 16.43L54.5858 16.5881L54.5893 16.5766L54.1113 16.43ZM58.9353 0.706711V0.206711H58.5657L58.4572 0.560057L58.9353 0.706711ZM60.255 0.706711L60.7335 0.561818L60.626 0.206711H60.255V0.706711ZM56.5916 10.1953L56.1121 10.0535L55.9223 10.6953H56.5916V10.1953ZM61.1652 10.1953V10.6953H61.8482L61.6418 10.0441L61.1652 10.1953ZM58.7987 2.73185L59.2753 2.58073L58.7821 1.02504L58.3193 2.59005L58.7987 2.73185ZM64.7326 17.2198C64.809 17.5035 64.9589 17.7596 65.2071 17.9389C65.4516 18.1154 65.7416 18.1814 66.0346 18.1814V17.1814C65.8877 17.1814 65.8212 17.1488 65.7926 17.1282C65.7678 17.1103 65.7281 17.0706 65.6982 16.9598L64.7326 17.2198ZM66.0346 18.1814C66.4068 18.1814 66.8489 18.0765 67.3395 17.9024L67.0051 16.9599C66.5553 17.1196 66.2389 17.1814 66.0346 17.1814V18.1814ZM66.6723 17.4311V18H67.6723V17.4311H66.6723ZM67.1723 17.5H61.6885V18.5H67.1723V17.5ZM62.1885 18V17.4311H61.1885V18H62.1885ZM61.5255 17.9038C61.996 18.066 62.433 18.1587 62.8262 18.1587V17.1587C62.5824 17.1587 62.2609 17.0996 61.8515 16.9585L61.5255 17.9038ZM62.8262 18.1587C63.0521 18.1587 63.311 18.1214 63.5248 17.97C63.7703 17.7961 63.8723 17.5339 63.8723 17.2719H62.8723C62.8723 17.2777 62.8714 17.2588 62.8858 17.2282C62.9014 17.195 62.9251 17.1693 62.9468 17.154C62.9654 17.1408 62.9715 17.1429 62.9503 17.1479C62.9289 17.1529 62.8894 17.1587 62.8262 17.1587V18.1587ZM63.8723 17.2719C63.8723 17.1697 63.863 17.049 63.8239 16.9317L62.8753 17.2479C62.8725 17.2397 62.8712 17.234 62.8706 17.2316C62.8701 17.2291 62.8702 17.2289 62.8705 17.2315C62.8712 17.2371 62.8723 17.25 62.8723 17.2719H63.8723ZM63.8264 16.9393L61.7785 10.4543L60.8249 10.7554L62.8728 17.2404L63.8264 16.9393ZM61.3017 10.1048H56.4778V11.1048H61.3017V10.1048ZM55.9989 10.4612C55.4517 12.2852 54.9273 14.1092 54.4256 15.9333L55.3898 16.1985C55.8894 14.3818 56.4117 12.5652 56.9567 10.7485L55.9989 10.4612ZM54.4263 15.9311L54.267 16.4999L55.2299 16.7696L55.3892 16.2007L54.4263 15.9311ZM54.2741 16.4766C54.2213 16.6352 54.2029 16.8066 54.2029 16.9761H55.2029C55.2029 16.8725 55.215 16.8163 55.2228 16.7929L54.2741 16.4766ZM54.2029 16.9761C54.2029 17.3052 54.3104 17.6318 54.5941 17.8603C54.8571 18.0722 55.195 18.1359 55.5221 18.1359V17.1359C55.3031 17.1359 55.2315 17.0897 55.2214 17.0816C55.2197 17.0802 55.2188 17.0801 55.2162 17.0736C55.2122 17.064 55.2029 17.0352 55.2029 16.9761H54.2029ZM55.5221 18.1359C55.8977 18.1359 56.3037 18.052 56.7324 17.9036L56.4052 16.9586C56.0451 17.0833 55.7533 17.1359 55.5221 17.1359V18.1359ZM56.0688 17.4311V18H57.0688V17.4311H56.0688ZM56.5688 17.5H51.8131V18.5H56.5688V17.5ZM52.3131 18V17.4311H51.3131V18H52.3131ZM51.6376 17.8993C52.0487 18.0535 52.4571 18.1359 52.8598 18.1359V17.1359C52.5951 17.1359 52.3057 17.0819 51.9887 16.963L51.6376 17.8993ZM52.8598 18.1359C53.1542 18.1359 53.4372 18.0768 53.6895 17.936C53.9442 17.7938 54.1392 17.584 54.2779 17.328L53.3986 16.8517C53.3401 16.9597 53.2735 17.0229 53.2021 17.0628C53.1282 17.1041 53.0206 17.1359 52.8598 17.1359V18.1359ZM54.2855 17.3134C54.4024 17.0797 54.5024 16.8378 54.5857 16.5881L53.637 16.2718C53.5686 16.4772 53.4866 16.6752 53.3911 16.8662L54.2855 17.3134ZM54.5893 16.5766L59.4133 0.853365L58.4572 0.560057L53.6333 16.2833L54.5893 16.5766ZM58.9353 1.20671H60.255V0.206711H58.9353V1.20671ZM59.7765 0.851604L64.7369 17.2347L65.694 16.9449L60.7335 0.561818L59.7765 0.851604ZM56.5916 10.6953H61.1652V9.69527H56.5916V10.6953ZM61.6418 10.0441L59.2753 2.58073L58.3221 2.88297L60.6886 10.3464L61.6418 10.0441ZM58.3193 2.59005L56.1121 10.0535L57.071 10.3371L59.2782 2.87364L58.3193 2.59005ZM84.9502 1.13904H85.4502V0.639043H84.9502V1.13904ZM84.9502 1.7079L84.8065 2.18682L85.4502 2.37992V1.7079H84.9502ZM83.1526 1.82167L82.8693 1.40965L82.8631 1.41397L82.8569 1.41847L83.1526 1.82167ZM82.8113 18.4551V18.9551H83.3113V18.4551H82.8113ZM82.2879 18.4551L81.8675 18.7256L82.0151 18.9551H82.2879V18.4551ZM72.2305 2.82286L72.651 2.55233L71.7277 1.11725L71.7305 2.82369L72.2305 2.82286ZM72.2533 16.6347H72.7533L72.7533 16.6339L72.2533 16.6347ZM72.6629 17.3174L72.4021 17.7441L72.4123 17.7501L72.6629 17.3174ZM74.6197 17.4311H75.1197V16.7489L74.4692 16.9544L74.6197 17.4311ZM74.6197 18V18.5H75.1197V18H74.6197ZM69.6593 18H69.1593V18.5H69.6593V18ZM69.6593 17.4311L69.8099 16.9544L69.1593 16.7489V17.4311H69.6593ZM71.3886 17.3174L71.0929 16.9142L71.0862 16.9191L71.0797 16.9242L71.3886 17.3174ZM71.3886 1.84443L71.6843 1.44123L71.3886 1.84443ZM69.6593 1.73066H69.1593V2.40267L69.803 2.20957L69.6593 1.73066ZM69.6593 1.1618V0.661798H69.1593V1.1618H69.6593ZM73.2317 1.1618L73.649 0.886368L73.5008 0.661798H73.2317V1.1618ZM82.2879 14.8827L81.8706 15.1581L82.7879 16.5479V14.8827H82.2879ZM81.9011 1.82167L81.6295 2.24146L81.9011 1.82167ZM80.0353 1.7079H79.5353V2.39014L80.1858 2.18469L80.0353 1.7079ZM80.0353 1.13904V0.639043H79.5353V1.13904H80.0353ZM84.4502 1.13904V1.7079H85.4502V1.13904H84.4502ZM85.0939 1.22899C84.7512 1.12617 84.4143 1.07138 84.0855 1.07138V2.07137C84.3029 2.07137 84.5425 2.1076 84.8065 2.18682L85.0939 1.22899ZM84.0855 1.07138C83.6341 1.07138 83.2164 1.17102 82.8693 1.40965L83.4359 2.23369C83.5742 2.13859 83.7785 2.07137 84.0855 2.07137V1.07138ZM82.8569 1.41847C82.4977 1.68189 82.3113 2.06085 82.3113 2.5043H83.3113C83.3113 2.37132 83.3524 2.29519 83.4483 2.22488L82.8569 1.41847ZM82.3113 2.5043V18.4551H83.3113V2.5043H82.3113ZM82.8113 17.9551H82.2879V18.9551H82.8113V17.9551ZM82.7084 18.1846L72.651 2.55233L71.81 3.0934L81.8675 18.7256L82.7084 18.1846ZM71.7305 2.82369L71.7533 16.6356L72.7533 16.6339L72.7305 2.82204L71.7305 2.82369ZM71.7533 16.6347C71.7533 17.1189 72.0001 17.4983 72.4021 17.744L72.9236 16.8907C72.7796 16.8027 72.7533 16.727 72.7533 16.6347H71.7533ZM72.4123 17.7501C72.7924 17.9701 73.2321 18.0677 73.7096 18.0677V17.0677C73.3679 17.0677 73.1098 16.9984 72.9134 16.8847L72.4123 17.7501ZM73.7096 18.0677C74.0764 18.0677 74.4308 18.0151 74.7703 17.9079L74.4692 16.9544C74.2322 17.0292 73.9798 17.0677 73.7096 17.0677V18.0677ZM74.1197 17.4311V18H75.1197V17.4311H74.1197ZM74.6197 17.5H69.6593V18.5H74.6197V17.5ZM70.1593 18V17.4311H69.1593V18H70.1593ZM69.5087 17.9079C69.8433 18.0136 70.1822 18.0677 70.524 18.0677V17.0677C70.2893 17.0677 70.0518 17.0307 69.8099 16.9544L69.5087 17.9079ZM70.524 18.0677C70.9613 18.0677 71.3708 17.9673 71.6975 17.7105L71.0797 16.9242C70.9817 17.0012 70.8148 17.0677 70.524 17.0677V18.0677ZM71.6843 17.7206C72.0435 17.4572 72.2299 17.0782 72.2299 16.6347H71.2299C71.2299 16.7677 71.1888 16.8439 71.0929 16.9142L71.6843 17.7206ZM72.2299 16.6347V2.52706H71.2299V16.6347H72.2299ZM72.2299 2.52706C72.2299 2.0836 72.0435 1.70464 71.6843 1.44123L71.0929 2.24763C71.1888 2.31794 71.2299 2.39407 71.2299 2.52706H72.2299ZM71.6843 1.44123C71.349 1.19536 70.9407 1.09413 70.5012 1.09413V2.09413C70.7898 2.09413 70.9731 2.15976 71.0929 2.24763L71.6843 1.44123ZM70.5012 1.09413C70.185 1.09413 69.8554 1.1498 69.5156 1.25174L69.803 2.20957C70.0699 2.12948 70.3016 2.09413 70.5012 2.09413V1.09413ZM70.1593 1.73066V1.1618H69.1593V1.73066H70.1593ZM69.6593 1.6618H73.2317V0.661798H69.6593V1.6618ZM72.8144 1.43723L81.8706 15.1581L82.7052 14.6072L73.649 0.886368L72.8144 1.43723ZM82.7879 14.8827V2.5043H81.7879V14.8827H82.7879ZM82.7879 2.5043C82.7879 2.03355 82.5618 1.65364 82.1727 1.40189L81.6295 2.24146C81.7562 2.32343 81.7879 2.39861 81.7879 2.5043H82.7879ZM82.1727 1.40189C81.8139 1.16967 81.3864 1.07138 80.9227 1.07138V2.07137C81.2478 2.07137 81.4726 2.13995 81.6295 2.24146L82.1727 1.40189ZM80.9227 1.07138C80.5684 1.07138 80.2218 1.12465 79.8847 1.23111L80.1858 2.18469C80.4252 2.10912 80.6702 2.07137 80.9227 2.07137V1.07138ZM80.5353 1.7079V1.13904H79.5353V1.7079H80.5353ZM80.0353 1.63904H84.9502V0.639043H80.0353V1.63904ZM99.8122 1.82167L100.306 1.89966L100.308 1.88644L100.31 1.87312L99.8122 1.82167ZM100.062 5.03003V5.53003H100.818L100.523 4.83476L100.062 5.03003ZM99.6984 5.03003L99.2555 5.26204L99.3958 5.53003H99.6984V5.03003ZM99.3343 3.77855L99.829 3.7058L99.8273 3.69441L99.8251 3.68311L99.3343 3.77855ZM98.902 2.5043L98.4678 2.75243L98.4732 2.76155L98.902 2.5043ZM97.787 1.7079L97.964 1.24026L97.787 1.7079ZM94.6014 1.43485L94.5394 0.938711L94.1014 0.993458V1.43485H94.6014ZM94.829 17.3401L94.459 17.6765L94.475 17.6941L94.4926 17.7101L94.829 17.3401ZM96.308 17.4311H96.808V16.7489L96.1574 16.9544L96.308 17.4311ZM96.308 18V18.5H96.808V18H96.308ZM91.1883 18H90.6883V18.5H91.1883V18ZM91.1883 17.4311L91.3319 16.9522L90.6883 16.7591V17.4311H91.1883ZM92.6445 17.3401L92.9981 17.6937L92.6445 17.3401ZM92.8948 1.43485H93.3948V0.993458L92.9569 0.938711L92.8948 1.43485ZM88.617 2.5043L89.0459 2.76161L89.0511 2.75237L88.617 2.5043ZM88.1847 3.77855L87.6939 3.68311L87.6917 3.69441L87.69 3.7058L88.1847 3.77855ZM87.8206 5.03003V5.53003H88.1232L88.2635 5.26204L87.8206 5.03003ZM87.4566 5.03003L86.9963 4.83476L86.7013 5.53003H87.4566V5.03003ZM87.7068 1.82167L87.2095 1.87312L87.2109 1.88644L87.213 1.89965L87.7068 1.82167ZM87.6386 1.1618V0.661798H87.0842L87.1412 1.21325L87.6386 1.1618ZM99.8804 1.1618L100.378 1.21325L100.435 0.661798H99.8804V1.1618ZM99.3183 1.74369C99.2671 2.0678 99.2439 2.46816 99.2439 2.93664H100.244C100.244 2.49494 100.266 2.15199 100.306 1.89966L99.3183 1.74369ZM99.2439 2.93664C99.2439 3.86089 99.352 4.63568 99.6022 5.22531L100.523 4.83476C100.348 4.42319 100.244 3.80239 100.244 2.93664H99.2439ZM100.062 4.53003H99.6984V5.53003H100.062V4.53003ZM100.141 4.79803C100.009 4.54622 99.9 4.18871 99.829 3.7058L98.8396 3.85129C98.9203 4.39991 99.0536 4.87672 99.2555 5.26204L100.141 4.79803ZM99.8251 3.68311C99.7134 3.10876 99.5548 2.62055 99.3307 2.24706L98.4732 2.76155C98.6132 2.99484 98.7428 3.35613 98.8435 3.87398L99.8251 3.68311ZM99.3361 2.25623C99.0698 1.79013 98.5698 1.46949 97.964 1.24026L97.6101 2.17555C98.1268 2.37107 98.3701 2.58136 98.4679 2.75237L99.3361 2.25623ZM97.964 1.24026C97.3164 0.995223 96.4011 0.889342 95.2613 0.889342V1.88934C96.3666 1.88934 97.1351 1.99583 97.6101 2.17555L97.964 1.24026ZM95.2613 0.889342C95.0391 0.889342 94.798 0.906384 94.5394 0.938711L94.6634 1.93099C94.8902 1.90264 95.089 1.88934 95.2613 1.88934V0.889342ZM94.1014 1.43485V16.6347H95.1014V1.43485H94.1014ZM94.1014 16.6347C94.1014 17.0189 94.1983 17.3897 94.459 17.6765L95.1989 17.0038C95.1562 16.9568 95.1014 16.8574 95.1014 16.6347H94.1014ZM94.4926 17.7101C94.7749 17.9667 95.1347 18.0677 95.5116 18.0677V17.0677C95.312 17.0677 95.2167 17.0169 95.1653 16.9702L94.4926 17.7101ZM95.5116 18.0677C95.8161 18.0677 96.133 18.0107 96.4585 17.9079L96.1574 16.9544C95.9065 17.0336 95.6925 17.0677 95.5116 17.0677V18.0677ZM95.808 17.4311V18H96.808V17.4311H95.808ZM96.308 17.5H91.1883V18.5H96.308V17.5ZM91.6883 18V17.4311H90.6883V18H91.6883ZM91.0446 17.9101C91.3778 18.01 91.6936 18.0677 91.9847 18.0677V17.0677C91.8207 17.0677 91.6055 17.0343 91.3319 16.9522L91.0446 17.9101ZM91.9847 18.0677C92.3586 18.0677 92.724 17.9678 92.9981 17.6937L92.291 16.9866C92.2617 17.0158 92.1872 17.0677 91.9847 17.0677V18.0677ZM92.9981 17.6937C93.2835 17.4083 93.3948 17.0311 93.3948 16.6347H92.3948C92.3948 16.8452 92.3394 16.9382 92.291 16.9866L92.9981 17.6937ZM93.3948 16.6347V1.43485H92.3948V16.6347H93.3948ZM92.9569 0.938711C92.7001 0.906612 92.4661 0.889342 92.2577 0.889342V1.88934C92.4134 1.88934 92.6042 1.90241 92.8328 1.93099L92.9569 0.938711ZM92.2577 0.889342C91.1179 0.889342 90.2026 0.995223 89.555 1.24026L89.9089 2.17555C90.3839 1.99583 91.1524 1.88934 92.2577 1.88934V0.889342ZM89.555 1.24026C88.9492 1.46949 88.4492 1.79013 88.1829 2.25623L89.0511 2.75237C89.1489 2.58136 89.3922 2.37107 89.9089 2.17555L89.555 1.24026ZM88.1883 2.24706C87.9642 2.62055 87.8056 3.10876 87.6939 3.68311L88.6755 3.87398C88.7762 3.35613 88.9058 2.99484 89.0458 2.76155L88.1883 2.24706ZM87.69 3.7058C87.619 4.18871 87.5096 4.54622 87.3777 4.79803L88.2635 5.26204C88.4654 4.87673 88.5987 4.39991 88.6794 3.85129L87.69 3.7058ZM87.8206 4.53003H87.4566V5.53003H87.8206V4.53003ZM87.9168 5.22531C88.167 4.63568 88.2751 3.86089 88.2751 2.93664H87.2751C87.2751 3.80239 87.1709 4.42319 86.9963 4.83476L87.9168 5.22531ZM88.2751 2.93664C88.2751 2.46816 88.2519 2.0678 88.2007 1.74369L87.213 1.89965C87.2528 2.15199 87.2751 2.49494 87.2751 2.93664H88.2751ZM88.2042 1.77022L88.1359 1.11035L87.1412 1.21325L87.2095 1.87312L88.2042 1.77022ZM87.6386 1.6618H99.8804V0.661798H87.6386V1.6618ZM99.3831 1.11035L99.3148 1.77022L100.31 1.87312L100.378 1.21325L99.3831 1.11035ZM118.293 1.73066L118.149 2.20957L118.793 2.40267V1.73066H118.293ZM116.814 1.84443L116.46 1.49087L116.814 1.84443ZM116.814 17.3401L116.444 17.6765L116.46 17.6941L116.477 17.7101L116.814 17.3401ZM118.293 17.4311H118.793V16.7489L118.142 16.9544L118.293 17.4311ZM118.293 18V18.5H118.793V18H118.293ZM113.173 18H112.673V18.5H113.173V18ZM113.173 17.4311L113.317 16.9522L112.673 16.7591V17.4311H113.173ZM114.629 17.3401L114.276 16.9866L114.629 17.3401ZM114.88 8.83001H115.38V8.33001H114.88V8.83001ZM106.438 8.83001V8.33001H105.938V8.83001H106.438ZM106.665 17.3401L106.295 17.6765L106.311 17.6941L106.329 17.7101L106.665 17.3401ZM108.144 17.4311H108.644V16.7489L107.994 16.9544L108.144 17.4311ZM108.144 18V18.5H108.644V18H108.144ZM103.025 18H102.525V18.5H103.025V18ZM103.025 17.4311L103.175 16.9544L102.525 16.7489V17.4311H103.025ZM104.481 17.3401L104.127 16.9866L104.481 17.3401ZM104.481 1.84443L104.111 2.18076L104.127 2.19838L104.145 2.2144L104.481 1.84443ZM103.025 1.73066H102.525V2.41289L103.175 2.20745L103.025 1.73066ZM103.025 1.1618V0.661798H102.525V1.1618H103.025ZM108.144 1.1618H108.644V0.661798H108.144V1.1618ZM108.144 1.73066L107.994 2.20745L108.644 2.41289V1.73066H108.144ZM106.665 1.84443L106.312 1.49087V1.49087L106.665 1.84443ZM106.438 8.37492H105.938V8.87492H106.438V8.37492ZM114.88 8.37492V8.87492H115.38V8.37492H114.88ZM114.629 1.84443L114.259 2.18076L114.275 2.19838L114.293 2.2144L114.629 1.84443ZM113.173 1.73066H112.673V2.40267L113.317 2.20957L113.173 1.73066ZM113.173 1.1618V0.661798H112.673V1.1618H113.173ZM118.293 1.1618H118.793V0.661798H118.293V1.1618ZM118.436 1.25174C118.103 1.15178 117.787 1.09413 117.496 1.09413V2.09413C117.66 2.09413 117.876 2.1275 118.149 2.20957L118.436 1.25174ZM117.496 1.09413C117.107 1.09413 116.741 1.21025 116.46 1.49087L117.167 2.19798C117.22 2.14488 117.309 2.09413 117.496 2.09413V1.09413ZM116.46 1.49087C116.182 1.76941 116.086 2.1466 116.086 2.52706H117.086C117.086 2.30074 117.142 2.22284 117.167 2.19798L116.46 1.49087ZM116.086 2.52706V16.6347H117.086V2.52706H116.086ZM116.086 16.6347C116.086 17.0189 116.183 17.3897 116.444 17.6765L117.184 17.0038C117.141 16.9568 117.086 16.8574 117.086 16.6347H116.086ZM116.477 17.7101C116.76 17.9667 117.119 18.0677 117.496 18.0677V17.0677C117.297 17.0677 117.201 17.0169 117.15 16.9702L116.477 17.7101ZM117.496 18.0677C117.801 18.0677 118.118 18.0107 118.443 17.9079L118.142 16.9544C117.891 17.0336 117.677 17.0677 117.496 17.0677V18.0677ZM117.793 17.4311V18H118.793V17.4311H117.793ZM118.293 17.5H113.173V18.5H118.293V17.5ZM113.673 18V17.4311H112.673V18H113.673ZM113.029 17.9101C113.363 18.01 113.678 18.0677 113.969 18.0677V17.0677C113.805 17.0677 113.59 17.0343 113.317 16.9522L113.029 17.9101ZM113.969 18.0677C114.343 18.0677 114.709 17.9678 114.983 17.6937L114.276 16.9866C114.246 17.0158 114.172 17.0677 113.969 17.0677V18.0677ZM114.983 17.6937C115.268 17.4083 115.38 17.0311 115.38 16.6347H114.38C114.38 16.8452 114.324 16.9382 114.276 16.9866L114.983 17.6937ZM115.38 16.6347V8.83001H114.38V16.6347H115.38ZM114.88 8.33001H106.438V9.33001H114.88V8.33001ZM105.938 8.83001V16.6347H106.938V8.83001H105.938ZM105.938 16.6347C105.938 17.0189 106.035 17.3897 106.295 17.6765L107.035 17.0038C106.993 16.9568 106.938 16.8574 106.938 16.6347H105.938ZM106.329 17.7101C106.616 17.9708 106.987 18.0677 107.371 18.0677V17.0677C107.148 17.0677 107.049 17.0129 107.002 16.9702L106.329 17.7101ZM107.371 18.0677C107.663 18.0677 107.973 18.0096 108.295 17.9079L107.994 16.9544C107.739 17.0347 107.534 17.0677 107.371 17.0677V18.0677ZM107.644 17.4311V18H108.644V17.4311H107.644ZM108.144 17.5H103.025V18.5H108.144V17.5ZM103.525 18V17.4311H102.525V18H103.525ZM102.874 17.9079C103.2 18.0107 103.516 18.0677 103.821 18.0677V17.0677C103.64 17.0677 103.426 17.0336 103.175 16.9544L102.874 17.9079ZM103.821 18.0677C104.195 18.0677 104.56 17.9678 104.834 17.6937L104.127 16.9866C104.098 17.0158 104.024 17.0677 103.821 17.0677V18.0677ZM104.834 17.6937C105.12 17.4083 105.231 17.0311 105.231 16.6347H104.231C104.231 16.8452 104.176 16.9382 104.127 16.9866L104.834 17.6937ZM105.231 16.6347V2.52706H104.231V16.6347H105.231ZM105.231 2.52706C105.231 2.13366 105.121 1.75044 104.817 1.47446L104.145 2.2144C104.175 2.2418 104.231 2.31367 104.231 2.52706H105.231ZM104.851 1.50809C104.58 1.20968 104.208 1.09413 103.821 1.09413V2.09413C104.01 2.09413 104.079 2.14545 104.111 2.18076L104.851 1.50809ZM103.821 1.09413C103.516 1.09413 103.2 1.15107 102.874 1.25386L103.175 2.20745C103.426 2.12821 103.64 2.09413 103.821 2.09413V1.09413ZM103.525 1.73066V1.1618H102.525V1.73066H103.525ZM103.025 1.6618H108.144V0.661798H103.025V1.6618ZM107.644 1.1618V1.73066H108.644V1.1618H107.644ZM108.295 1.25386C107.969 1.15107 107.652 1.09413 107.348 1.09413V2.09413C107.529 2.09413 107.743 2.12821 107.994 2.20745L108.295 1.25386ZM107.348 1.09413C106.958 1.09413 106.592 1.21025 106.312 1.49087L107.019 2.19798C107.072 2.14488 107.161 2.09413 107.348 2.09413V1.09413ZM106.312 1.49087C106.033 1.76941 105.938 2.1466 105.938 2.52706H106.938C106.938 2.30074 106.994 2.22284 107.019 2.19798L106.312 1.49087ZM105.938 2.52706V8.37492H106.938V2.52706H105.938ZM106.438 8.87492H114.88V7.87492H106.438V8.87492ZM115.38 8.37492V2.52706H114.38V8.37492H115.38ZM115.38 2.52706C115.38 2.13366 115.269 1.75044 114.966 1.47446L114.293 2.2144C114.323 2.2418 114.38 2.31367 114.38 2.52706H115.38ZM114.999 1.50809C114.728 1.20968 114.357 1.09413 113.969 1.09413V2.09413C114.158 2.09413 114.227 2.14545 114.259 2.18076L114.999 1.50809ZM113.969 1.09413C113.678 1.09413 113.363 1.15178 113.029 1.25174L113.317 2.20957C113.59 2.1275 113.805 2.09413 113.969 2.09413V1.09413ZM113.673 1.73066V1.1618H112.673V1.73066H113.673ZM113.173 1.6618H118.293V0.661798H113.173V1.6618ZM117.793 1.1618V1.73066H118.793V1.1618H117.793ZM134.425 17.0898L134.908 16.9598L134.906 16.9524L134.904 16.9449L134.425 17.0898ZM136.382 17.4311H136.882V16.7232L136.215 16.9599L136.382 17.4311ZM136.382 18V18.5H136.882V18H136.382ZM130.898 18H130.398V18.5H130.898V18ZM130.898 17.4311L131.061 16.9585L130.398 16.7298V17.4311H130.898ZM132.559 17.0898L132.082 17.2404L132.085 17.2479L132.559 17.0898ZM130.511 10.6048L130.988 10.4543L130.878 10.1048H130.511V10.6048ZM125.687 10.6048V10.1048H125.315L125.208 10.4612L125.687 10.6048ZM124.117 16.0659L124.599 16.2007L124.599 16.1985L124.117 16.0659ZM123.958 16.6347L124.432 16.7929L124.436 16.7813L124.44 16.7696L123.958 16.6347ZM125.778 17.4311H126.278V16.729L125.615 16.9586L125.778 17.4311ZM125.778 18V18.5H126.278V18H125.778ZM121.023 18H120.523V18.5H121.023V18ZM121.023 17.4311L121.198 16.963L120.523 16.7096V17.4311H121.023ZM123.048 17.0898L123.488 17.328L123.491 17.3208L123.495 17.3134L123.048 17.0898ZM123.321 16.43L123.795 16.5881L123.799 16.5766L123.321 16.43ZM128.145 0.706711V0.206711H127.775L127.667 0.560057L128.145 0.706711ZM129.465 0.706711L129.943 0.561818L129.836 0.206711H129.465V0.706711ZM125.801 10.1953L125.322 10.0535L125.132 10.6953H125.801V10.1953ZM130.375 10.1953V10.6953H131.058L130.851 10.0441L130.375 10.1953ZM128.008 2.73185L128.485 2.58073L127.992 1.02504L127.529 2.59005L128.008 2.73185ZM133.942 17.2198C134.019 17.5035 134.168 17.7596 134.417 17.9389C134.661 18.1154 134.951 18.1814 135.244 18.1814V17.1814C135.097 17.1814 135.031 17.1488 135.002 17.1282C134.977 17.1103 134.938 17.0706 134.908 16.9598L133.942 17.2198ZM135.244 18.1814C135.616 18.1814 136.058 18.0765 136.549 17.9024L136.215 16.9599C135.765 17.1196 135.448 17.1814 135.244 17.1814V18.1814ZM135.882 17.4311V18H136.882V17.4311H135.882ZM136.382 17.5H130.898V18.5H136.382V17.5ZM131.398 18V17.4311H130.398V18H131.398ZM130.735 17.9038C131.206 18.066 131.643 18.1587 132.036 18.1587V17.1587C131.792 17.1587 131.471 17.0996 131.061 16.9585L130.735 17.9038ZM132.036 18.1587C132.262 18.1587 132.521 18.1214 132.734 17.97C132.98 17.7961 133.082 17.5339 133.082 17.2719H132.082C132.082 17.2777 132.081 17.2588 132.095 17.2282C132.111 17.195 132.135 17.1693 132.156 17.154C132.175 17.1408 132.181 17.1429 132.16 17.1479C132.138 17.1529 132.099 17.1587 132.036 17.1587V18.1587ZM133.082 17.2719C133.082 17.1697 133.073 17.049 133.034 16.9317L132.085 17.2479C132.082 17.2397 132.081 17.234 132.08 17.2316C132.08 17.2291 132.08 17.2289 132.08 17.2315C132.081 17.2371 132.082 17.25 132.082 17.2719H133.082ZM133.036 16.9393L130.988 10.4543L130.035 10.7554L132.082 17.2404L133.036 16.9393ZM130.511 10.1048H125.687V11.1048H130.511V10.1048ZM125.208 10.4612C124.661 12.2852 124.137 14.1092 123.635 15.9333L124.599 16.1985C125.099 14.3818 125.621 12.5652 126.166 10.7485L125.208 10.4612ZM123.636 15.9311L123.477 16.4999L124.44 16.7696L124.599 16.2007L123.636 15.9311ZM123.484 16.4766C123.431 16.6352 123.413 16.8066 123.413 16.9761H124.413C124.413 16.8725 124.425 16.8163 124.432 16.7929L123.484 16.4766ZM123.413 16.9761C123.413 17.3052 123.52 17.6318 123.804 17.8603C124.067 18.0722 124.405 18.1359 124.732 18.1359V17.1359C124.513 17.1359 124.441 17.0897 124.431 17.0816C124.429 17.0802 124.428 17.0801 124.426 17.0736C124.422 17.064 124.413 17.0352 124.413 16.9761H123.413ZM124.732 18.1359C125.107 18.1359 125.513 18.052 125.942 17.9036L125.615 16.9586C125.255 17.0833 124.963 17.1359 124.732 17.1359V18.1359ZM125.278 17.4311V18H126.278V17.4311H125.278ZM125.778 17.5H121.023V18.5H125.778V17.5ZM121.523 18V17.4311H120.523V18H121.523ZM120.847 17.8993C121.258 18.0535 121.667 18.1359 122.069 18.1359V17.1359C121.805 17.1359 121.515 17.0819 121.198 16.963L120.847 17.8993ZM122.069 18.1359C122.364 18.1359 122.647 18.0768 122.899 17.936C123.154 17.7938 123.349 17.584 123.488 17.328L122.608 16.8517C122.55 16.9597 122.483 17.0229 122.412 17.0628C122.338 17.1041 122.23 17.1359 122.069 17.1359V18.1359ZM123.495 17.3134C123.612 17.0797 123.712 16.8378 123.795 16.5881L122.847 16.2718C122.778 16.4772 122.696 16.6752 122.601 16.8662L123.495 17.3134ZM123.799 16.5766L128.623 0.853365L127.667 0.560057L122.843 16.2833L123.799 16.5766ZM128.145 1.20671H129.465V0.206711H128.145V1.20671ZM128.986 0.851604L133.946 17.2347L134.904 16.9449L129.943 0.561818L128.986 0.851604ZM125.801 10.6953H130.375V9.69527H125.801V10.6953ZM130.851 10.0441L128.485 2.58073L127.532 2.88297L129.898 10.3464L130.851 10.0441ZM127.529 2.59005L125.322 10.0535L126.281 10.3371L128.488 2.87364L127.529 2.59005Z" fill="black"/>
</svg>
