<svg width="150" height="38" viewBox="0 0 150 38" fill="none" xmlns="http://www.w3.org/2000/svg">
<rect width="150" height="38" fill="#324250"/>
<path d="M13.614 23.26C12.9813 23.26 12.4743 23.156 12.093 22.948C11.7203 22.7313 11.3953 22.4107 11.118 21.986L10.936 22.753H10.676V19.217H11.027C11.027 20.3957 11.2307 21.3273 11.638 22.012C12.054 22.6967 12.6693 23.039 13.484 23.039C13.8653 23.039 14.199 22.935 14.485 22.727C14.771 22.5103 14.9877 22.2287 15.135 21.882C15.2823 21.5353 15.356 21.167 15.356 20.777C15.356 20.3003 15.2477 19.906 15.031 19.594C14.823 19.2733 14.563 19.022 14.251 18.84C13.939 18.658 13.5273 18.4587 13.016 18.242C12.4873 18.0167 12.067 17.813 11.755 17.631C11.443 17.4403 11.1787 17.189 10.962 16.877C10.754 16.5563 10.65 16.1533 10.65 15.668C10.65 15.1827 10.7627 14.745 10.988 14.355C11.222 13.965 11.534 13.6617 11.924 13.445C12.3227 13.2283 12.769 13.12 13.263 13.12C13.5663 13.12 13.8653 13.172 14.16 13.276C14.4633 13.38 14.719 13.5143 14.927 13.679C15.135 13.835 15.2607 13.991 15.304 14.147L15.447 13.146H15.694V15.733H15.395C15.395 15.343 15.3257 14.9703 15.187 14.615C15.0483 14.2597 14.8317 13.9693 14.537 13.744C14.251 13.5187 13.8957 13.406 13.471 13.406C12.925 13.406 12.4787 13.588 12.132 13.952C11.794 14.316 11.625 14.823 11.625 15.473C11.625 15.8457 11.7203 16.162 11.911 16.422C12.1017 16.6733 12.3357 16.8813 12.613 17.046C12.899 17.2107 13.2803 17.4013 13.757 17.618C14.3117 17.8693 14.758 18.1033 15.096 18.32C15.4427 18.528 15.733 18.814 15.967 19.178C16.2097 19.5333 16.331 19.9797 16.331 20.517C16.331 20.9503 16.2053 21.3837 15.954 21.817C15.7027 22.2417 15.369 22.5883 14.953 22.857C14.537 23.1257 14.0907 23.26 13.614 23.26ZM25.6794 22.48C25.7401 22.7053 25.8961 22.818 26.1474 22.818C26.3121 22.818 26.5288 22.7703 26.7974 22.675V23H23.6644V22.675C23.9158 22.7617 24.1324 22.805 24.3144 22.805C24.5224 22.805 24.6264 22.7313 24.6264 22.584C24.6264 22.5407 24.6221 22.506 24.6134 22.48L23.4434 18.775H20.6874C20.3754 19.815 20.0764 20.855 19.7904 21.895L19.6994 22.22C19.6821 22.272 19.6734 22.337 19.6734 22.415C19.6734 22.6663 19.8294 22.792 20.1414 22.792C20.3148 22.792 20.5141 22.753 20.7394 22.675V23H18.0224V22.675C18.2304 22.753 18.4298 22.792 18.6204 22.792C18.8804 22.792 19.0668 22.688 19.1794 22.48C19.2401 22.3587 19.2921 22.233 19.3354 22.103L22.0914 13.12H22.8454L25.6794 22.48ZM20.7524 18.541H23.3654L22.0134 14.277L20.7524 18.541ZM38.6183 13.705C38.4536 13.653 38.3019 13.627 38.1633 13.627C37.9986 13.627 37.8686 13.6747 37.7733 13.77C37.6866 13.8567 37.6433 13.9867 37.6433 14.16V22.22C37.6433 22.3933 37.6866 22.5277 37.7733 22.623C37.8686 22.7097 37.9986 22.753 38.1633 22.753C38.3019 22.753 38.4536 22.727 38.6183 22.675V23H35.6933V22.675C35.8666 22.727 36.0183 22.753 36.1483 22.753C36.3129 22.753 36.4386 22.7097 36.5253 22.623C36.6206 22.5277 36.6683 22.3933 36.6683 22.22V13.887L33.4703 23.26H33.2753L29.7913 14.719L29.8043 22.22C29.8043 22.3847 29.8823 22.5147 30.0383 22.61C30.2029 22.7053 30.4023 22.753 30.6363 22.753C30.8096 22.753 30.9829 22.727 31.1563 22.675V23H28.2183V22.675C28.3829 22.727 28.5519 22.753 28.7253 22.753C28.9506 22.753 29.1369 22.7053 29.2843 22.61C29.4316 22.5147 29.5053 22.3847 29.5053 22.22V14.16C29.5053 13.9953 29.4446 13.8653 29.3233 13.77C29.2019 13.6747 29.0373 13.627 28.8293 13.627C28.6819 13.627 28.5216 13.653 28.3483 13.705V13.38H30.3633L33.7173 21.674L36.4083 13.38H38.6183V13.705ZM47.8302 22.48C47.8909 22.7053 48.0469 22.818 48.2982 22.818C48.4629 22.818 48.6795 22.7703 48.9482 22.675V23H45.8152V22.675C46.0665 22.7617 46.2832 22.805 46.4652 22.805C46.6732 22.805 46.7772 22.7313 46.7772 22.584C46.7772 22.5407 46.7729 22.506 46.7642 22.48L45.5942 18.775H42.8382C42.5262 19.815 42.2272 20.855 41.9412 21.895L41.8502 22.22C41.8329 22.272 41.8242 22.337 41.8242 22.415C41.8242 22.6663 41.9802 22.792 42.2922 22.792C42.4655 22.792 42.6649 22.753 42.8902 22.675V23H40.1732V22.675C40.3812 22.753 40.5805 22.792 40.7712 22.792C41.0312 22.792 41.2175 22.688 41.3302 22.48C41.3909 22.3587 41.4429 22.233 41.4862 22.103L44.2422 13.12H44.9962L47.8302 22.48ZM42.9032 18.541H45.5162L44.1642 14.277L42.9032 18.541ZM59.1051 13.367V13.692C58.9317 13.64 58.7671 13.614 58.6111 13.614C58.3944 13.614 58.2167 13.6617 58.0781 13.757C57.9481 13.8523 57.8831 13.9823 57.8831 14.147V23.26H57.5841L51.8381 14.329L51.8511 22.22C51.8511 22.3847 51.9291 22.5147 52.0851 22.61C52.2497 22.7053 52.4491 22.753 52.6831 22.753C52.8651 22.753 53.0384 22.727 53.2031 22.675V23H50.3691V22.675C50.5337 22.727 50.6984 22.753 50.8631 22.753C51.0711 22.753 51.2357 22.7053 51.3571 22.61C51.4871 22.5147 51.5521 22.3847 51.5521 22.22V14.16C51.5521 13.9953 51.4871 13.8653 51.3571 13.77C51.2271 13.6747 51.0581 13.627 50.8501 13.627C50.7027 13.627 50.5424 13.653 50.3691 13.705V13.38H52.4101L57.5841 21.219V14.147C57.5841 13.9823 57.5104 13.8523 57.3631 13.757C57.2157 13.6617 57.0294 13.614 56.8041 13.614C56.6307 13.614 56.4617 13.64 56.2971 13.692V13.367H59.1051ZM67.596 13.757C67.57 13.9217 67.557 14.134 67.557 14.394C67.557 14.9053 67.6177 15.304 67.739 15.59H67.531C67.4357 15.408 67.3663 15.1697 67.323 14.875C67.2623 14.563 67.18 14.3203 67.076 14.147C66.972 13.965 66.7597 13.8133 66.439 13.692C66.1183 13.5707 65.6373 13.51 64.996 13.51C64.8833 13.51 64.7577 13.5187 64.619 13.536V22.22C64.619 22.3933 64.6623 22.5277 64.749 22.623C64.8443 22.7097 64.9743 22.753 65.139 22.753C65.2777 22.753 65.4293 22.727 65.594 22.675V23H62.669V22.675C62.8423 22.727 62.994 22.753 63.124 22.753C63.2887 22.753 63.4143 22.7097 63.501 22.623C63.5963 22.5277 63.644 22.3933 63.644 22.22V13.536C63.5053 13.5187 63.384 13.51 63.28 13.51C62.6387 13.51 62.1577 13.5707 61.837 13.692C61.5163 13.8133 61.304 13.965 61.2 14.147C61.096 14.3203 61.0137 14.563 60.953 14.875C60.9097 15.1697 60.8403 15.408 60.745 15.59H60.537C60.6583 15.304 60.719 14.9053 60.719 14.394C60.719 14.134 60.706 13.9217 60.68 13.757L60.641 13.38H67.635L67.596 13.757ZM78.1543 13.705C77.981 13.653 77.8293 13.627 77.6993 13.627C77.5347 13.627 77.4047 13.6747 77.3093 13.77C77.2227 13.8567 77.1793 13.9867 77.1793 14.16V22.22C77.1793 22.3933 77.2227 22.5277 77.3093 22.623C77.4047 22.7097 77.5347 22.753 77.6993 22.753C77.838 22.753 77.9897 22.727 78.1543 22.675V23H75.2293V22.675C75.4027 22.727 75.5543 22.753 75.6843 22.753C75.849 22.753 75.9747 22.7097 76.0613 22.623C76.1567 22.5277 76.2043 22.3933 76.2043 22.22V17.761H71.3813V22.22C71.3813 22.3933 71.4247 22.5277 71.5113 22.623C71.6067 22.7097 71.741 22.753 71.9143 22.753C72.0443 22.753 72.1917 22.727 72.3563 22.675V23H69.4313V22.675C69.596 22.727 69.7477 22.753 69.8863 22.753C70.051 22.753 70.1767 22.7097 70.2633 22.623C70.3587 22.5277 70.4063 22.3933 70.4063 22.22V14.16C70.4063 13.9867 70.3587 13.8567 70.2633 13.77C70.1767 13.6747 70.051 13.627 69.8863 13.627C69.7477 13.627 69.596 13.653 69.4313 13.705V13.38H72.3563V13.705C72.1917 13.653 72.04 13.627 71.9013 13.627C71.7367 13.627 71.6067 13.6747 71.5113 13.77C71.4247 13.8567 71.3813 13.9867 71.3813 14.16V17.501H76.2043V14.16C76.2043 13.9867 76.1567 13.8567 76.0613 13.77C75.9747 13.6747 75.849 13.627 75.6843 13.627C75.5543 13.627 75.4027 13.653 75.2293 13.705V13.38H78.1543V13.705ZM87.371 22.48C87.4317 22.7053 87.5877 22.818 87.839 22.818C88.0037 22.818 88.2204 22.7703 88.489 22.675V23H85.356V22.675C85.6074 22.7617 85.824 22.805 86.006 22.805C86.214 22.805 86.318 22.7313 86.318 22.584C86.318 22.5407 86.3137 22.506 86.305 22.48L85.135 18.775H82.379C82.067 19.815 81.768 20.855 81.482 21.895L81.391 22.22C81.3737 22.272 81.365 22.337 81.365 22.415C81.365 22.6663 81.521 22.792 81.833 22.792C82.0064 22.792 82.2057 22.753 82.431 22.675V23H79.714V22.675C79.922 22.753 80.1214 22.792 80.312 22.792C80.572 22.792 80.7584 22.688 80.871 22.48C80.9317 22.3587 80.9837 22.233 81.027 22.103L83.783 13.12H84.537L87.371 22.48ZM82.444 18.541H85.057L83.705 14.277L82.444 18.541ZM99.8281 20.062C99.7067 20.1747 99.6244 20.3523 99.5811 20.595C99.5464 20.8377 99.5291 21.1973 99.5291 21.674V23H94.3421V22.675C94.5067 22.727 94.6584 22.753 94.7971 22.753C94.9617 22.753 95.0874 22.7097 95.1741 22.623C95.2694 22.5277 95.3171 22.3933 95.3171 22.22V14.16C95.3171 13.9867 95.2694 13.8567 95.1741 13.77C95.0874 13.6747 94.9617 13.627 94.7971 13.627C94.6584 13.627 94.5067 13.653 94.3421 13.705V13.38H97.2671V13.705C97.1024 13.653 96.9507 13.627 96.8121 13.627C96.6474 13.627 96.5174 13.6747 96.4221 13.77C96.3354 13.8567 96.2921 13.9867 96.2921 14.16V21.375C96.2921 21.8863 96.3787 22.2633 96.5521 22.506C96.7254 22.7487 97.0287 22.87 97.4621 22.87C97.9474 22.87 98.3114 22.805 98.5541 22.675C98.7967 22.5363 98.9571 22.3673 99.0351 22.168C99.1131 21.96 99.1781 21.6697 99.2301 21.297C99.2647 21.011 99.3037 20.777 99.3471 20.595C99.3904 20.413 99.4684 20.2353 99.5811 20.062H99.8281ZM108.537 20.062C108.416 20.1747 108.333 20.3523 108.29 20.595C108.255 20.8377 108.238 21.1973 108.238 21.674V23H101.647V22.675C101.812 22.727 101.963 22.753 102.102 22.753C102.267 22.753 102.392 22.7097 102.479 22.623C102.574 22.5277 102.622 22.3933 102.622 22.22V14.16C102.622 13.9867 102.574 13.8567 102.479 13.77C102.392 13.6747 102.267 13.627 102.102 13.627C101.963 13.627 101.812 13.653 101.647 13.705V13.38H107.692L107.653 13.757C107.627 13.9217 107.614 14.134 107.614 14.394C107.614 14.9053 107.675 15.304 107.796 15.59H107.588C107.493 15.408 107.423 15.1697 107.38 14.875C107.319 14.563 107.237 14.3203 107.133 14.147C107.029 13.965 106.817 13.8133 106.496 13.692C106.175 13.5707 105.694 13.51 105.053 13.51C104.594 13.51 104.26 13.588 104.052 13.744C103.844 13.9 103.718 14.069 103.675 14.251C103.64 14.4243 103.614 14.6757 103.597 15.005V17.475H105.391C105.642 17.475 105.816 17.4707 105.911 17.462C106.015 17.4447 106.093 17.4057 106.145 17.345C106.197 17.2843 106.223 17.1803 106.223 17.033C106.223 16.773 106.206 16.578 106.171 16.448C106.145 16.318 106.058 16.253 105.911 16.253V16.084H106.418V19.1H105.911V18.918C106.058 18.918 106.145 18.8487 106.171 18.71C106.206 18.5627 106.223 18.3547 106.223 18.086C106.223 17.9473 106.162 17.8563 106.041 17.813C105.928 17.761 105.712 17.7307 105.391 17.722H103.597V21.375C103.614 21.6697 103.649 21.9167 103.701 22.116C103.753 22.3067 103.887 22.48 104.104 22.636C104.329 22.792 104.672 22.87 105.131 22.87C105.876 22.87 106.444 22.792 106.834 22.636C107.224 22.4713 107.488 22.272 107.627 22.038C107.766 21.7953 107.887 21.4703 107.991 21.063C108.095 20.621 108.216 20.2873 108.355 20.062H108.537ZM114.524 23.26C113.952 23.26 113.419 23.1517 112.925 22.935C112.44 22.7183 112.033 22.363 111.703 21.869C111.383 21.3663 111.214 20.7163 111.196 19.919V14.16C111.196 13.9867 111.149 13.8567 111.053 13.77C110.967 13.6747 110.841 13.627 110.676 13.627C110.538 13.627 110.386 13.653 110.221 13.705V13.38L110.715 13.393C111.149 13.4103 111.478 13.419 111.703 13.419C111.929 13.419 112.249 13.4103 112.665 13.393L113.146 13.38V13.705C112.982 13.653 112.83 13.627 112.691 13.627C112.527 13.627 112.397 13.6747 112.301 13.77C112.215 13.8567 112.171 13.9867 112.171 14.16V19.763C112.171 20.5257 112.293 21.1497 112.535 21.635C112.778 22.1203 113.081 22.4713 113.445 22.688C113.809 22.9047 114.186 23.013 114.576 23.013C115.538 23.013 116.206 22.675 116.578 21.999C116.951 21.323 117.137 20.5473 117.137 19.672V14.147C117.137 13.9823 117.064 13.8523 116.916 13.757C116.778 13.6617 116.596 13.614 116.37 13.614C116.197 13.614 116.028 13.64 115.863 13.692V13.38H118.632V13.692C118.459 13.64 118.299 13.614 118.151 13.614C117.961 13.614 117.805 13.6617 117.683 13.757C117.571 13.8523 117.514 13.9823 117.514 14.147V19.763C117.506 20.4043 117.389 20.9893 117.163 21.518C116.947 22.0467 116.613 22.4713 116.162 22.792C115.72 23.104 115.174 23.26 114.524 23.26ZM129.059 13.367V13.692C128.885 13.64 128.721 13.614 128.565 13.614C128.348 13.614 128.17 13.6617 128.032 13.757C127.902 13.8523 127.837 13.9823 127.837 14.147V23.26H127.538L121.792 14.329L121.805 22.22C121.805 22.3847 121.883 22.5147 122.039 22.61C122.203 22.7053 122.403 22.753 122.637 22.753C122.819 22.753 122.992 22.727 123.157 22.675V23H120.323V22.675C120.487 22.727 120.652 22.753 120.817 22.753C121.025 22.753 121.189 22.7053 121.311 22.61C121.441 22.5147 121.506 22.3847 121.506 22.22V14.16C121.506 13.9953 121.441 13.8653 121.311 13.77C121.181 13.6747 121.012 13.627 120.804 13.627C120.656 13.627 120.496 13.653 120.323 13.705V13.38H122.364L127.538 21.219V14.147C127.538 13.9823 127.464 13.8523 127.317 13.757C127.169 13.6617 126.983 13.614 126.758 13.614C126.584 13.614 126.415 13.64 126.251 13.692V13.367H129.059ZM135.372 23.26C134.566 23.26 133.829 23.0303 133.162 22.571C132.503 22.103 131.979 21.4833 131.589 20.712C131.207 19.932 131.017 19.0913 131.017 18.19C131.017 17.28 131.194 16.4393 131.55 15.668C131.914 14.888 132.416 14.2683 133.058 13.809C133.708 13.3497 134.44 13.12 135.255 13.12C135.835 13.12 136.394 13.276 136.932 13.588C137.478 13.9 137.889 14.2423 138.167 14.615L138.362 13.341H138.583V16.24H138.167C138.167 15.7633 138.054 15.3083 137.829 14.875C137.603 14.433 137.261 14.0733 136.802 13.796C136.351 13.5187 135.792 13.38 135.125 13.38C134.527 13.38 133.998 13.601 133.539 14.043C133.079 14.485 132.728 15.07 132.486 15.798C132.243 16.526 132.122 17.306 132.122 18.138C132.122 19.0133 132.234 19.8193 132.46 20.556C132.685 21.284 133.045 21.8733 133.539 22.324C134.041 22.7747 134.674 23 135.437 23C135.991 23 136.468 22.8483 136.867 22.545C137.265 22.2417 137.564 21.8603 137.764 21.401C137.972 20.933 138.076 20.4607 138.076 19.984C138.076 19.594 138.045 19.295 137.985 19.087C137.933 18.879 137.829 18.775 137.673 18.775L136.724 18.762C136.195 18.762 135.883 18.788 135.788 18.84C135.692 18.892 135.645 18.996 135.645 19.152C135.653 19.308 135.658 19.4163 135.658 19.477C135.658 19.6677 135.675 19.815 135.71 19.919C135.744 20.0143 135.822 20.0663 135.944 20.075V20.244H135.437V18.515H138.934V21.726C138.778 21.726 138.587 21.7867 138.362 21.908C138.214 21.9947 138.058 22.0943 137.894 22.207C137.434 22.519 137.005 22.7747 136.607 22.974C136.208 23.1647 135.796 23.26 135.372 23.26Z" fill="white"/>
<path d="M12.093 22.948L11.8416 23.3804L11.8536 23.3869L12.093 22.948ZM11.118 21.986L11.5366 21.7126L10.9002 20.7381L10.6315 21.8706L11.118 21.986ZM10.936 22.753V23.253H11.3312L11.4225 22.8684L10.936 22.753ZM10.676 22.753H10.176V23.253H10.676V22.753ZM10.676 19.217V18.717H10.176V19.217H10.676ZM11.027 19.217H11.527V18.717H11.027V19.217ZM11.638 22.012L11.2083 22.2677L11.2107 22.2716L11.638 22.012ZM14.485 22.727L14.7791 23.1314L14.7869 23.1255L14.485 22.727ZM15.135 21.882L14.6748 21.6864L14.6748 21.6864L15.135 21.882ZM15.031 19.594L14.6115 19.8661L14.6158 19.8727L14.6203 19.8792L15.031 19.594ZM14.251 18.84L14.5029 18.4081L14.5029 18.4081L14.251 18.84ZM13.016 18.242L12.82 18.702L12.8209 18.7024L13.016 18.242ZM11.755 17.631L11.4942 18.0577L11.5031 18.0629L11.755 17.631ZM10.962 16.877L10.5425 17.1491L10.5468 17.1557L10.5513 17.1622L10.962 16.877ZM10.988 14.355L10.5592 14.0977L10.5551 14.1049L10.988 14.355ZM11.924 13.445L11.6852 13.0057L11.6812 13.0079L11.924 13.445ZM14.16 13.276L13.9936 13.7475L13.9978 13.749L14.16 13.276ZM14.927 13.679L14.6165 14.0712L14.627 14.079L14.927 13.679ZM15.304 14.147L14.8222 14.2808L15.799 14.2177L15.304 14.147ZM15.447 13.146V12.646H15.0134L14.952 13.0753L15.447 13.146ZM15.694 13.146H16.194V12.646H15.694V13.146ZM15.694 15.733V16.233H16.194V15.733H15.694ZM15.395 15.733H14.895V16.233H15.395V15.733ZM14.537 13.744L14.2275 14.1368L14.2333 14.1412L14.537 13.744ZM12.132 13.952L11.7699 13.6071L11.7656 13.6118L12.132 13.952ZM11.911 16.422L11.5077 16.7177L11.5127 16.7242L11.911 16.422ZM12.613 17.046L12.3577 17.476L12.3635 17.4793L12.613 17.046ZM13.757 17.618L13.5501 18.0732L13.5506 18.0734L13.757 17.618ZM15.096 18.32L14.8262 18.7409L14.8324 18.7449L14.8388 18.7487L15.096 18.32ZM15.967 19.178L15.5462 19.4485L15.5541 19.46L15.967 19.178ZM15.954 21.817L16.3843 22.0717L16.3865 22.0679L15.954 21.817ZM13.614 22.76C13.0294 22.76 12.6144 22.6628 12.3324 22.5091L11.8536 23.3869C12.3343 23.6492 12.9333 23.76 13.614 23.76V22.76ZM12.3443 22.5157C12.05 22.3446 11.7788 22.0835 11.5366 21.7126L10.6994 22.2594C11.0118 22.7379 11.3907 23.118 11.8417 23.3803L12.3443 22.5157ZM10.6315 21.8706L10.4495 22.6376L11.4225 22.8684L11.6045 22.1014L10.6315 21.8706ZM10.936 22.253H10.676V23.253H10.936V22.253ZM11.176 22.753V19.217H10.176V22.753H11.176ZM10.676 19.717H11.027V18.717H10.676V19.717ZM10.527 19.217C10.527 20.4454 10.738 21.4771 11.2083 22.2676L12.0677 21.7564C11.7233 21.1775 11.527 20.3459 11.527 19.217H10.527ZM11.2107 22.2716C11.7192 23.1086 12.4983 23.539 13.484 23.539V22.539C12.8404 22.539 12.3888 22.2847 12.0653 21.7524L11.2107 22.2716ZM13.484 23.539C13.9623 23.539 14.4008 23.4065 14.7791 23.1314L14.1909 22.3226C13.9972 22.4635 13.7684 22.539 13.484 22.539V23.539ZM14.7869 23.1255C15.146 22.8535 15.4155 22.5004 15.5952 22.0776L14.6748 21.6864C14.5599 21.9569 14.396 22.1671 14.1831 22.3285L14.7869 23.1255ZM15.5952 22.0776C15.7697 21.6669 15.856 21.2318 15.856 20.777H14.856C14.856 21.1022 14.7949 21.4038 14.6748 21.6864L15.5952 22.0776ZM15.856 20.777C15.856 20.2245 15.7298 19.7237 15.4417 19.3088L14.6203 19.8792C14.7655 20.0883 14.856 20.3762 14.856 20.777H15.856ZM15.4505 19.3219C15.2024 18.9395 14.8864 18.6318 14.5029 18.4081L13.9991 19.2719C14.2396 19.4122 14.4436 19.6071 14.6115 19.8661L15.4505 19.3219ZM14.5029 18.4081C14.1656 18.2114 13.7328 18.0027 13.2111 17.7816L12.8209 18.7024C13.3219 18.9147 13.7124 19.1046 13.9991 19.2719L14.5029 18.4081ZM13.212 17.782C12.6928 17.5607 12.2936 17.3663 12.0069 17.1991L11.5031 18.0629C11.8404 18.2597 12.2819 18.4726 12.82 18.702L13.212 17.782ZM12.0157 17.2044C11.7653 17.0513 11.5513 16.849 11.3727 16.5918L10.5513 17.1622C10.806 17.529 11.1207 17.8293 11.4943 18.0576L12.0157 17.2044ZM11.3815 16.6049C11.2385 16.3845 11.15 16.0827 11.15 15.668H10.15C10.15 16.224 10.2695 16.7281 10.5425 17.1491L11.3815 16.6049ZM11.15 15.668C11.15 15.2635 11.2429 14.9132 11.4209 14.6051L10.5551 14.1049C10.2824 14.5768 10.15 15.1019 10.15 15.668H11.15ZM11.4167 14.6122C11.6065 14.2959 11.855 14.0553 12.1668 13.8821L11.6812 13.0079C11.213 13.268 10.8375 13.6341 10.5593 14.0978L11.4167 14.6122ZM12.1628 13.8843C12.4818 13.7109 12.8448 13.62 13.263 13.62V12.62C12.6932 12.62 12.1636 12.7457 11.6852 13.0057L12.1628 13.8843ZM13.263 13.62C13.5079 13.62 13.7507 13.6618 13.9936 13.7475L14.3264 12.8045C13.9799 12.6822 13.6247 12.62 13.263 12.62V13.62ZM13.9978 13.749C14.2584 13.8383 14.4613 13.948 14.6166 14.071L15.2374 13.287C14.9767 13.0806 14.6683 12.9217 14.3222 12.803L13.9978 13.749ZM14.627 14.079C14.707 14.139 14.7575 14.189 14.7879 14.2267C14.8178 14.2639 14.8226 14.282 14.8222 14.2808L15.7858 14.0132C15.6997 13.7035 15.4737 13.464 15.227 13.279L14.627 14.079ZM15.799 14.2177L15.942 13.2167L14.952 13.0753L14.809 14.0763L15.799 14.2177ZM15.447 13.646H15.694V12.646H15.447V13.646ZM15.194 13.146V15.733H16.194V13.146H15.194ZM15.694 15.233H15.395V16.233H15.694V15.233ZM15.895 15.733C15.895 15.2822 15.8146 14.8478 15.6528 14.4332L14.7212 14.7968C14.8368 15.0929 14.895 15.4038 14.895 15.733H15.895ZM15.6528 14.4332C15.4818 13.9951 15.2102 13.6294 14.8407 13.3468L14.2333 14.1412C14.4531 14.3093 14.6148 14.5242 14.7212 14.7968L15.6528 14.4332ZM14.8464 13.3513C14.4581 13.0453 13.9884 12.906 13.471 12.906V13.906C13.8029 13.906 14.0439 13.9921 14.2276 14.1367L14.8464 13.3513ZM13.471 12.906C12.8013 12.906 12.2196 13.135 11.7699 13.6072L12.4941 14.2968C12.7377 14.041 13.0487 13.906 13.471 13.906V12.906ZM11.7656 13.6118C11.3179 14.0939 11.125 14.7368 11.125 15.473H12.125C12.125 14.9092 12.2701 14.5381 12.4984 14.2922L11.7656 13.6118ZM11.125 15.473C11.125 15.9348 11.2448 16.359 11.5078 16.7177L12.3142 16.1263C12.1959 15.965 12.125 15.7565 12.125 15.473H11.125ZM11.5127 16.7242C11.7432 17.0281 12.0262 17.2791 12.3577 17.4759L12.8683 16.6161C12.6452 16.4836 12.4601 16.3186 12.3093 16.1198L11.5127 16.7242ZM12.3635 17.4793C12.6689 17.6552 13.0662 17.8533 13.5501 18.0732L13.9639 17.1628C13.4944 16.9494 13.1291 16.7662 12.8625 16.6127L12.3635 17.4793ZM13.5506 18.0734C14.0933 18.3193 14.516 18.5421 14.8262 18.7409L15.3658 17.8991C15 17.6646 14.53 17.4193 13.9634 17.1626L13.5506 18.0734ZM14.8388 18.7487C15.1149 18.9145 15.351 19.1444 15.5464 19.4484L16.3876 18.9076C16.115 18.4836 15.7704 18.1415 15.3532 17.8913L14.8388 18.7487ZM15.5541 19.46C15.7273 19.7136 15.831 20.0551 15.831 20.517H16.831C16.831 19.9042 16.692 19.353 16.3799 18.896L15.5541 19.46ZM15.831 20.517C15.831 20.8493 15.7356 21.197 15.5215 21.5661L16.3865 22.0679C16.6751 21.5704 16.831 21.0514 16.831 20.517H15.831ZM15.5237 21.5623C15.312 21.9201 15.0329 22.2102 14.6817 22.437L15.2243 23.277C15.7051 22.9665 16.0933 22.5633 16.3843 22.0717L15.5237 21.5623ZM14.6817 22.437C14.3433 22.6556 13.9906 22.76 13.614 22.76V23.76C14.1908 23.76 14.7307 23.5958 15.2243 23.277L14.6817 22.437ZM25.6794 22.48L26.1622 22.35L26.1602 22.3425L26.158 22.3351L25.6794 22.48ZM26.7974 22.675H27.2974V21.967L26.6302 22.2038L26.7974 22.675ZM26.7974 23V23.5H27.2974V23H26.7974ZM23.6644 23H23.1644V23.5H23.6644V23ZM23.6644 22.675L23.8274 22.2023L23.1644 21.9737V22.675H23.6644ZM24.6134 22.48L24.1366 22.6306L24.1391 22.6381L24.6134 22.48ZM23.4434 18.775L23.9202 18.6244L23.8099 18.275H23.4434V18.775ZM20.6874 18.775V18.275H20.3154L20.2085 18.6313L20.6874 18.775ZM19.7904 21.895L20.2719 22.0298L20.2725 22.0276L19.7904 21.895ZM19.6994 22.22L20.1738 22.3781L20.1776 22.3666L20.1809 22.3548L19.6994 22.22ZM20.7394 22.675H21.2394V21.9728L20.5759 22.2025L20.7394 22.675ZM20.7394 23V23.5H21.2394V23H20.7394ZM18.0224 23H17.5224V23.5H18.0224V23ZM18.0224 22.675L18.198 22.2068L17.5224 21.9535V22.675H18.0224ZM19.1794 22.48L19.6191 22.7181L19.623 22.7109L19.6266 22.7036L19.1794 22.48ZM19.3354 22.103L19.8099 22.2612L19.8134 22.2497L19.3354 22.103ZM22.0914 13.12V12.62H21.7218L21.6134 12.9733L22.0914 13.12ZM22.8454 13.12L23.324 12.9751L23.2164 12.62H22.8454V13.12ZM20.7524 18.541L20.2729 18.3992L20.0832 19.041H20.7524V18.541ZM23.3654 18.541V19.041H24.0485L23.842 18.3899L23.3654 18.541ZM22.0134 14.277L22.49 14.1259L21.9968 12.5702L21.5339 14.1352L22.0134 14.277ZM25.1966 22.61C25.2502 22.8091 25.3595 23.0018 25.5492 23.1388C25.7351 23.2731 25.9487 23.318 26.1474 23.318V22.318C26.1346 22.318 26.1253 22.3173 26.1191 22.3165C26.116 22.3161 26.1137 22.3157 26.1123 22.3155C26.1108 22.3152 26.1101 22.315 26.1101 22.315C26.1108 22.3152 26.121 22.3183 26.1347 22.3282C26.1412 22.3329 26.1472 22.3382 26.1525 22.3438C26.1577 22.3494 26.1614 22.3544 26.1637 22.358C26.1684 22.3653 26.1662 22.3647 26.1622 22.35L25.1966 22.61ZM26.1474 23.318C26.396 23.318 26.6756 23.2488 26.9646 23.1462L26.6302 22.2038C26.382 22.2919 26.2281 22.318 26.1474 22.318V23.318ZM26.2974 22.675V23H27.2974V22.675H26.2974ZM26.7974 22.5H23.6644V23.5H26.7974V22.5ZM24.1644 23V22.675H23.1644V23H24.1644ZM23.5014 23.1477C23.7833 23.2449 24.0577 23.305 24.3144 23.305V22.305C24.2071 22.305 24.0482 22.2785 23.8274 22.2023L23.5014 23.1477ZM24.3144 23.305C24.4622 23.305 24.6627 23.2816 24.8374 23.1578C25.0438 23.0116 25.1264 22.7908 25.1264 22.584H24.1264C24.1264 22.5622 24.1304 22.5191 24.1545 22.4678C24.1799 22.4139 24.2182 22.3709 24.2594 22.3417C24.3302 22.2916 24.3746 22.305 24.3144 22.305V23.305ZM25.1264 22.584C25.1264 22.5144 25.1203 22.4196 25.0878 22.3219L24.1391 22.6381C24.1306 22.6127 24.1279 22.5944 24.127 22.5875C24.1261 22.5801 24.1264 22.5784 24.1264 22.584H25.1264ZM25.0902 22.3294L23.9202 18.6244L22.9666 18.9256L24.1366 22.6306L25.0902 22.3294ZM23.4434 18.275H20.6874V19.275H23.4434V18.275ZM20.2085 18.6313C19.8954 19.675 19.5953 20.7187 19.3083 21.7624L20.2725 22.0276C20.5575 20.9913 20.8554 19.955 21.1663 18.9187L20.2085 18.6313ZM19.3089 21.7602L19.2179 22.0852L20.1809 22.3548L20.2719 22.0298L19.3089 21.7602ZM19.2251 22.0619C19.1852 22.1814 19.1734 22.3041 19.1734 22.415H20.1734C20.1734 22.3941 20.1746 22.3808 20.1755 22.3738C20.1765 22.3667 20.1768 22.369 20.1738 22.3781L19.2251 22.0619ZM19.1734 22.415C19.1734 22.6498 19.2516 22.9058 19.4768 23.0871C19.6812 23.2518 19.9314 23.292 20.1414 23.292V22.292C20.0954 22.292 20.0725 22.2872 20.0663 22.2855C20.0612 22.2842 20.0788 22.288 20.1041 22.3084C20.1316 22.3305 20.1527 22.3599 20.1647 22.3888C20.1754 22.4146 20.1734 22.427 20.1734 22.415H19.1734ZM20.1414 23.292C20.387 23.292 20.6434 23.2374 20.903 23.1475L20.5759 22.2025C20.3848 22.2686 20.2425 22.292 20.1414 22.292V23.292ZM20.2394 22.675V23H21.2394V22.675H20.2394ZM20.7394 22.5H18.0224V23.5H20.7394V22.5ZM18.5224 23V22.675H17.5224V23H18.5224ZM17.8469 23.1432C18.1019 23.2388 18.3608 23.292 18.6204 23.292V22.292C18.4987 22.292 18.359 22.2672 18.198 22.2068L17.8469 23.1432ZM18.6204 23.292C18.8172 23.292 19.0166 23.2523 19.1989 23.1506C19.3837 23.0474 19.5226 22.8962 19.6191 22.7181L18.7398 22.2419C18.7235 22.2718 18.713 22.2766 18.7115 22.2774C18.7075 22.2797 18.6836 22.292 18.6204 22.292V23.292ZM19.6266 22.7036C19.698 22.5609 19.759 22.4133 19.8098 22.2611L18.8611 21.9449C18.8252 22.0527 18.7822 22.1564 18.7322 22.2564L19.6266 22.7036ZM19.8134 22.2497L22.5694 13.2667L21.6134 12.9733L18.8574 21.9563L19.8134 22.2497ZM22.0914 13.62H22.8454V12.62H22.0914V13.62ZM22.3669 13.2649L25.2009 22.6249L26.158 22.3351L23.324 12.9751L22.3669 13.2649ZM20.7524 19.041H23.3654V18.041H20.7524V19.041ZM23.842 18.3899L22.49 14.1259L21.5368 14.4281L22.8888 18.6921L23.842 18.3899ZM21.5339 14.1352L20.2729 18.3992L21.2319 18.6828L22.4929 14.4188L21.5339 14.1352ZM38.6183 13.705L38.4677 14.1818L39.1183 14.3872V13.705H38.6183ZM37.7733 13.77L38.1268 14.1236L38.1268 14.1236L37.7733 13.77ZM37.7733 22.623L37.4033 22.9593L37.4193 22.977L37.4369 22.993L37.7733 22.623ZM38.6183 22.675H39.1183V21.9928L38.4677 22.1982L38.6183 22.675ZM38.6183 23V23.5H39.1183V23H38.6183ZM35.6933 23H35.1933V23.5H35.6933V23ZM35.6933 22.675L35.837 22.1961L35.1933 22.003V22.675H35.6933ZM36.5253 22.623L36.8788 22.9766L36.8788 22.9766L36.5253 22.623ZM36.6683 13.887H37.1683L36.1951 13.7255L36.6683 13.887ZM33.4703 23.26V23.76H33.828L33.9435 23.4215L33.4703 23.26ZM33.2753 23.26L32.8123 23.4488L32.9392 23.76H33.2753V23.26ZM29.7913 14.719L30.2542 14.5301L29.2913 14.7199L29.7913 14.719ZM29.8043 22.22L30.3043 22.22L30.3043 22.2191L29.8043 22.22ZM30.0383 22.61L29.7775 23.0368L29.7878 23.0427L30.0383 22.61ZM31.1563 22.675H31.6563V22.003L31.0126 22.1961L31.1563 22.675ZM31.1563 23V23.5H31.6563V23H31.1563ZM28.2183 23H27.7183V23.5H28.2183V23ZM28.2183 22.675L28.3688 22.1982L27.7183 21.9928V22.675H28.2183ZM29.2843 22.61L29.5559 23.0298L29.5559 23.0298L29.2843 22.61ZM29.3233 13.77L29.6322 13.3768L29.6322 13.3768L29.3233 13.77ZM28.3483 13.705H27.8483V14.377L28.492 14.1839L28.3483 13.705ZM28.3483 13.38V12.88H27.8483V13.38H28.3483ZM30.3633 13.38L30.8268 13.1926L30.7004 12.88H30.3633V13.38ZM33.7173 21.674L33.2537 21.8614L33.7688 23.1352L34.1929 21.8283L33.7173 21.674ZM36.4083 13.38V12.88H36.0448L35.9327 13.2257L36.4083 13.38ZM38.6183 13.38H39.1183V12.88H38.6183V13.38ZM38.7688 13.2282C38.5669 13.1644 38.3638 13.127 38.1633 13.127V14.127C38.2401 14.127 38.3403 14.1416 38.4677 14.1818L38.7688 13.2282ZM38.1633 13.127C37.8973 13.127 37.6288 13.2073 37.4197 13.4164L38.1268 14.1236C38.125 14.1254 38.1223 14.1276 38.1192 14.1296C38.1161 14.1316 38.1142 14.1323 38.1144 14.1322C38.1149 14.132 38.1288 14.127 38.1633 14.127V13.127ZM37.4197 13.4164C37.2062 13.63 37.1433 13.9096 37.1433 14.16H38.1433C38.1433 14.1135 38.1493 14.0932 38.1501 14.0906C38.1504 14.0898 38.1492 14.0937 38.1452 14.1004C38.141 14.1073 38.135 14.1154 38.1268 14.1236L37.4197 13.4164ZM37.1433 14.16V22.22H38.1433V14.16H37.1433ZM37.1433 22.22C37.1433 22.4741 37.2077 22.7441 37.4033 22.9593L38.1433 22.2867C38.1523 22.2966 38.1535 22.3032 38.1516 22.2972C38.1491 22.2895 38.1433 22.266 38.1433 22.22H37.1433ZM37.4369 22.993C37.6477 23.1846 37.91 23.253 38.1633 23.253V22.253C38.1242 22.253 38.1053 22.2478 38.1004 22.2462C38.0972 22.2451 38.1026 22.2466 38.1096 22.253L37.4369 22.993ZM38.1633 23.253C38.3638 23.253 38.5669 23.2156 38.7688 23.1518L38.4677 22.1982C38.3403 22.2384 38.2401 22.253 38.1633 22.253V23.253ZM38.1183 22.675V23H39.1183V22.675H38.1183ZM38.6183 22.5H35.6933V23.5H38.6183V22.5ZM36.1933 23V22.675H35.1933V23H36.1933ZM35.5496 23.1539C35.7528 23.2149 35.9547 23.253 36.1483 23.253V22.253C36.0818 22.253 35.9805 22.2391 35.837 22.1961L35.5496 23.1539ZM36.1483 23.253C36.3986 23.253 36.6697 23.1856 36.8788 22.9766L36.1717 22.2694C36.1783 22.2628 36.1854 22.2574 36.1919 22.2534C36.1983 22.2495 36.2025 22.248 36.203 22.2478C36.2035 22.2477 36.1879 22.253 36.1483 22.253V23.253ZM36.8788 22.9766C37.0927 22.7627 37.1683 22.4863 37.1683 22.22H36.1683C36.1683 22.2616 36.1625 22.2802 36.1613 22.2835C36.1608 22.285 36.1612 22.2834 36.1634 22.2799C36.1656 22.2764 36.1685 22.2727 36.1717 22.2694L36.8788 22.9766ZM37.1683 22.22V13.887H36.1683V22.22H37.1683ZM36.1951 13.7255L32.9971 23.0985L33.9435 23.4215L37.1415 14.0485L36.1951 13.7255ZM33.4703 22.76H33.2753V23.76H33.4703V22.76ZM33.7382 23.0712L30.2542 14.5301L29.3283 14.9078L32.8123 23.4488L33.7382 23.0712ZM29.2913 14.7199L29.3043 22.2209L30.3043 22.2191L30.2913 14.7181L29.2913 14.7199ZM29.3043 22.22C29.3043 22.5807 29.4925 22.8625 29.7776 23.0366L30.299 22.1834C30.2758 22.1692 30.2813 22.1667 30.2915 22.1838C30.2963 22.1918 30.3 22.2007 30.3023 22.2091C30.3044 22.2172 30.3043 22.2214 30.3043 22.22H29.3043ZM29.7878 23.0427C30.0442 23.1912 30.3344 23.253 30.6363 23.253V22.253C30.4702 22.253 30.3617 22.2195 30.2888 22.1773L29.7878 23.0427ZM30.6363 23.253C30.8604 23.253 31.0821 23.2193 31.3 23.1539L31.0126 22.1961C30.8838 22.2347 30.7588 22.253 30.6363 22.253V23.253ZM30.6563 22.675V23H31.6563V22.675H30.6563ZM31.1563 22.5H28.2183V23.5H31.1563V22.5ZM28.7183 23V22.675H27.7183V23H28.7183ZM28.0677 23.1518C28.2813 23.2192 28.5011 23.253 28.7253 23.253V22.253C28.6028 22.253 28.4846 22.2348 28.3688 22.1982L28.0677 23.1518ZM28.7253 23.253C29.0199 23.253 29.3076 23.1905 29.5559 23.0298L29.0127 22.1902C28.9663 22.2202 28.8813 22.253 28.7253 22.253V23.253ZM29.5559 23.0298C29.8344 22.8496 30.0053 22.5672 30.0053 22.22H29.0053C29.0053 22.2237 29.0049 22.2217 29.0064 22.2157C29.008 22.2095 29.0108 22.2019 29.015 22.1945C29.0192 22.1872 29.0229 22.183 29.024 22.1819C29.0249 22.181 29.022 22.1842 29.0127 22.1902L29.5559 23.0298ZM30.0053 22.22V14.16H29.0053V22.22H30.0053ZM30.0053 14.16C30.0053 13.8538 29.8832 13.5741 29.6322 13.3768L29.0144 14.1632C29.0171 14.1653 29.0163 14.1651 29.0139 14.1622C29.0115 14.1591 29.0088 14.155 29.0067 14.1504C29.0046 14.146 29.0041 14.1433 29.0042 14.1438C29.0043 14.1445 29.0053 14.1495 29.0053 14.16H30.0053ZM29.6322 13.3768C29.3965 13.1916 29.1105 13.127 28.8293 13.127V14.127C28.964 14.127 29.0074 14.1577 29.0144 14.1632L29.6322 13.3768ZM28.8293 13.127C28.6237 13.127 28.4144 13.1632 28.2046 13.2261L28.492 14.1839C28.6289 14.1428 28.7402 14.127 28.8293 14.127V13.127ZM28.8483 13.705V13.38H27.8483V13.705H28.8483ZM28.3483 13.88H30.3633V12.88H28.3483V13.88ZM29.8997 13.5674L33.2537 21.8614L34.1808 21.4866L30.8268 13.1926L29.8997 13.5674ZM34.1929 21.8283L36.8839 13.5343L35.9327 13.2257L33.2417 21.5197L34.1929 21.8283ZM36.4083 13.88H38.6183V12.88H36.4083V13.88ZM38.1183 13.38V13.705H39.1183V13.38H38.1183ZM47.8302 22.48L48.313 22.35L48.311 22.3425L48.3087 22.3351L47.8302 22.48ZM48.9482 22.675H49.4482V21.967L48.781 22.2038L48.9482 22.675ZM48.9482 23V23.5H49.4482V23H48.9482ZM45.8152 23H45.3152V23.5H45.8152V23ZM45.8152 22.675L45.9782 22.2023L45.3152 21.9737V22.675H45.8152ZM46.7642 22.48L46.2874 22.6306L46.2899 22.6381L46.7642 22.48ZM45.5942 18.775L46.071 18.6244L45.9606 18.275H45.5942V18.775ZM42.8382 18.775V18.275H42.4662L42.3593 18.6313L42.8382 18.775ZM41.9412 21.895L42.4227 22.0298L42.4233 22.0276L41.9412 21.895ZM41.8502 22.22L42.3245 22.3781L42.3284 22.3666L42.3317 22.3548L41.8502 22.22ZM42.8902 22.675H43.3902V21.9728L42.7266 22.2025L42.8902 22.675ZM42.8902 23V23.5H43.3902V23H42.8902ZM40.1732 23H39.6732V23.5H40.1732V23ZM40.1732 22.675L40.3488 22.2068L39.6732 21.9535V22.675H40.1732ZM41.3302 22.48L41.7698 22.7181L41.7738 22.7109L41.7774 22.7036L41.3302 22.48ZM41.4862 22.103L41.9607 22.2612L41.9642 22.2497L41.4862 22.103ZM44.2422 13.12V12.62H43.8726L43.7642 12.9733L44.2422 13.12ZM44.9962 13.12L45.4747 12.9751L45.3672 12.62H44.9962V13.12ZM42.9032 18.541L42.4237 18.3992L42.2339 19.041H42.9032V18.541ZM45.5162 18.541V19.041H46.1993L45.9928 18.3899L45.5162 18.541ZM44.1642 14.277L44.6408 14.1259L44.1476 12.5702L43.6847 14.1352L44.1642 14.277ZM47.3474 22.61C47.401 22.8091 47.5102 23.0018 47.7 23.1388C47.8859 23.2731 48.0995 23.318 48.2982 23.318V22.318C48.2854 22.318 48.2761 22.3173 48.2699 22.3165C48.2668 22.3161 48.2645 22.3157 48.263 22.3155C48.2616 22.3152 48.2609 22.315 48.2609 22.315C48.2616 22.3152 48.2718 22.3183 48.2854 22.3282C48.292 22.3329 48.298 22.3382 48.3033 22.3438C48.3085 22.3494 48.3122 22.3544 48.3145 22.358C48.3192 22.3653 48.317 22.3647 48.313 22.35L47.3474 22.61ZM48.2982 23.318C48.5468 23.318 48.8263 23.2488 49.1154 23.1462L48.781 22.2038C48.5327 22.2919 48.3789 22.318 48.2982 22.318V23.318ZM48.4482 22.675V23H49.4482V22.675H48.4482ZM48.9482 22.5H45.8152V23.5H48.9482V22.5ZM46.3152 23V22.675H45.3152V23H46.3152ZM45.6522 23.1477C45.9341 23.2449 46.2085 23.305 46.4652 23.305V22.305C46.3579 22.305 46.199 22.2785 45.9782 22.2023L45.6522 23.1477ZM46.4652 23.305C46.613 23.305 46.8134 23.2816 46.9882 23.1578C47.1946 23.0116 47.2772 22.7908 47.2772 22.584H46.2772C46.2772 22.5622 46.2812 22.5191 46.3053 22.4678C46.3307 22.4139 46.369 22.3709 46.4102 22.3417C46.481 22.2916 46.5254 22.305 46.4652 22.305V23.305ZM47.2772 22.584C47.2772 22.5144 47.2711 22.4196 47.2385 22.3219L46.2899 22.6381C46.2814 22.6127 46.2787 22.5944 46.2778 22.5875C46.2769 22.5801 46.2772 22.5784 46.2772 22.584H47.2772ZM47.241 22.3294L46.071 18.6244L45.1174 18.9256L46.2874 22.6306L47.241 22.3294ZM45.5942 18.275H42.8382V19.275H45.5942V18.275ZM42.3593 18.6313C42.0462 19.675 41.7461 20.7187 41.4591 21.7624L42.4233 22.0276C42.7083 20.9913 43.0062 19.955 43.3171 18.9187L42.3593 18.6313ZM41.4597 21.7602L41.3687 22.0852L42.3317 22.3548L42.4227 22.0298L41.4597 21.7602ZM41.3759 22.0619C41.336 22.1814 41.3242 22.3041 41.3242 22.415H42.3242C42.3242 22.3941 42.3254 22.3808 42.3263 22.3738C42.3273 22.3667 42.3276 22.369 42.3245 22.3781L41.3759 22.0619ZM41.3242 22.415C41.3242 22.6498 41.4024 22.9058 41.6275 23.0871C41.832 23.2518 42.0822 23.292 42.2922 23.292V22.292C42.2461 22.292 42.2232 22.2872 42.2171 22.2855C42.212 22.2842 42.2296 22.288 42.2549 22.3084C42.2824 22.3305 42.3035 22.3599 42.3155 22.3888C42.3261 22.4146 42.3242 22.427 42.3242 22.415H41.3242ZM42.2922 23.292C42.5378 23.292 42.7941 23.2374 43.0538 23.1475L42.7266 22.2025C42.5356 22.2686 42.3933 22.292 42.2922 22.292V23.292ZM42.3902 22.675V23H43.3902V22.675H42.3902ZM42.8902 22.5H40.1732V23.5H42.8902V22.5ZM40.6732 23V22.675H39.6732V23H40.6732ZM39.9976 23.1432C40.2527 23.2388 40.5116 23.292 40.7712 23.292V22.292C40.6495 22.292 40.5097 22.2672 40.3488 22.2068L39.9976 23.1432ZM40.7712 23.292C40.968 23.292 41.1673 23.2523 41.3496 23.1506C41.5345 23.0474 41.6734 22.8962 41.7698 22.7181L40.8906 22.2419C40.8743 22.2718 40.8638 22.2766 40.8623 22.2774C40.8582 22.2797 40.8344 22.292 40.7712 22.292V23.292ZM41.7774 22.7036C41.8488 22.5609 41.9098 22.4133 41.9605 22.2611L41.0119 21.9449C40.9759 22.0527 40.933 22.1564 40.883 22.2564L41.7774 22.7036ZM41.9642 22.2497L44.7202 13.2667L43.7642 12.9733L41.0082 21.9563L41.9642 22.2497ZM44.2422 13.62H44.9962V12.62H44.2422V13.62ZM44.5177 13.2649L47.3517 22.6249L48.3087 22.3351L45.4747 12.9751L44.5177 13.2649ZM42.9032 19.041H45.5162V18.041H42.9032V19.041ZM45.9928 18.3899L44.6408 14.1259L43.6876 14.4281L45.0396 18.6921L45.9928 18.3899ZM43.6847 14.1352L42.4237 18.3992L43.3827 18.6828L44.6437 14.4188L43.6847 14.1352ZM59.1051 13.367H59.6051V12.867H59.1051V13.367ZM59.1051 13.692L58.9614 14.1709L59.6051 14.364V13.692H59.1051ZM58.0781 13.757L57.7948 13.345L57.7885 13.3493L57.7824 13.3538L58.0781 13.757ZM57.8831 23.26V23.76H58.3831V23.26H57.8831ZM57.5841 23.26L57.1636 23.5305L57.3112 23.76H57.5841V23.26ZM51.8381 14.329L52.2586 14.0585L51.3353 12.6234L51.3381 14.3298L51.8381 14.329ZM51.8511 22.22L52.3511 22.22L52.3511 22.2192L51.8511 22.22ZM52.0851 22.61L51.8243 23.0368L51.8345 23.0427L52.0851 22.61ZM53.2031 22.675H53.7031V21.9928L53.0525 22.1982L53.2031 22.675ZM53.2031 23V23.5H53.7031V23H53.2031ZM50.3691 23H49.8691V23.5H50.3691V23ZM50.3691 22.675L50.5196 22.1982L49.8691 21.9928V22.675H50.3691ZM51.3571 22.61L51.0614 22.2068L51.0547 22.2117L51.0482 22.2168L51.3571 22.61ZM50.3691 13.705H49.8691V14.377L50.5127 14.1839L50.3691 13.705ZM50.3691 13.38V12.88H49.8691V13.38H50.3691ZM52.4101 13.38L52.8274 13.1046L52.6791 12.88H52.4101V13.38ZM57.5841 21.219L57.1668 21.4944L58.0841 22.8842V21.219H57.5841ZM57.3631 13.757L57.0914 14.1768L57.0914 14.1768L57.3631 13.757ZM56.2971 13.692H55.7971V14.3742L56.4476 14.1688L56.2971 13.692ZM56.2971 13.367V12.867H55.7971V13.367H56.2971ZM58.6051 13.367V13.692H59.6051V13.367H58.6051ZM59.2487 13.2131C59.0361 13.1493 58.8228 13.114 58.6111 13.114V14.114C58.7113 14.114 58.8274 14.1307 58.9614 14.1709L59.2487 13.2131ZM58.6111 13.114C58.3222 13.114 58.0378 13.1779 57.7948 13.345L58.3613 14.169C58.3956 14.1454 58.4666 14.114 58.6111 14.114V13.114ZM57.7824 13.3538C57.5207 13.5457 57.3831 13.8271 57.3831 14.147H58.3831C58.3831 14.1388 58.3839 14.1361 58.3835 14.1377C58.3831 14.1395 58.3819 14.1439 58.379 14.1496C58.3762 14.1553 58.373 14.1596 58.3708 14.1622C58.3688 14.1646 58.369 14.1637 58.3737 14.1602L57.7824 13.3538ZM57.3831 14.147V23.26H58.3831V14.147H57.3831ZM57.8831 22.76H57.5841V23.76H57.8831V22.76ZM58.0046 22.9895L52.2586 14.0585L51.4176 14.5995L57.1636 23.5305L58.0046 22.9895ZM51.3381 14.3298L51.3511 22.2208L52.3511 22.2192L52.3381 14.3282L51.3381 14.3298ZM51.3511 22.22C51.3511 22.5807 51.5393 22.8625 51.8243 23.0366L52.3458 22.1834C52.3226 22.1692 52.3281 22.1667 52.3383 22.1838C52.3431 22.1918 52.3468 22.2007 52.349 22.2091C52.3512 22.2172 52.3511 22.2214 52.3511 22.22H51.3511ZM51.8345 23.0427C52.091 23.1912 52.3812 23.253 52.6831 23.253V22.253C52.5169 22.253 52.4084 22.2195 52.3356 22.1773L51.8345 23.0427ZM52.6831 23.253C52.9134 23.253 53.1377 23.22 53.3536 23.1518L53.0525 22.1982C52.9391 22.234 52.8168 22.253 52.6831 22.253V23.253ZM52.7031 22.675V23H53.7031V22.675H52.7031ZM53.2031 22.5H50.3691V23.5H53.2031V22.5ZM50.8691 23V22.675H49.8691V23H50.8691ZM50.2185 23.1518C50.4295 23.2184 50.6449 23.253 50.8631 23.253V22.253C50.7519 22.253 50.638 22.2356 50.5196 22.1982L50.2185 23.1518ZM50.8631 23.253C51.1443 23.253 51.4303 23.1884 51.666 23.0032L51.0482 22.2168C51.0412 22.2223 50.9978 22.253 50.8631 22.253V23.253ZM51.6527 23.0132C51.9144 22.8213 52.0521 22.5399 52.0521 22.22H51.0521C51.0521 22.2282 51.0513 22.2309 51.0516 22.2293C51.052 22.2275 51.0533 22.2231 51.0561 22.2174C51.059 22.2117 51.0621 22.2074 51.0643 22.2048C51.0664 22.2024 51.0661 22.2033 51.0614 22.2068L51.6527 23.0132ZM52.0521 22.22V14.16H51.0521V22.22H52.0521ZM52.0521 14.16C52.0521 13.8401 51.9144 13.5587 51.6527 13.3668L51.0614 14.1732C51.0661 14.1767 51.0664 14.1776 51.0643 14.1752C51.0621 14.1726 51.059 14.1683 51.0561 14.1626C51.0533 14.1569 51.052 14.1525 51.0516 14.1507C51.0513 14.1491 51.0521 14.1518 51.0521 14.16H52.0521ZM51.6527 13.3668C51.415 13.1925 51.1335 13.127 50.8501 13.127V14.127C50.9826 14.127 51.0391 14.1569 51.0614 14.1732L51.6527 13.3668ZM50.8501 13.127C50.6445 13.127 50.4351 13.1632 50.2254 13.2261L50.5127 14.1839C50.6497 14.1428 50.761 14.127 50.8501 14.127V13.127ZM50.8691 13.705V13.38H49.8691V13.705H50.8691ZM50.3691 13.88H52.4101V12.88H50.3691V13.88ZM51.9928 13.6554L57.1668 21.4944L58.0014 20.9436L52.8274 13.1046L51.9928 13.6554ZM58.0841 21.219V14.147H57.0841V21.219H58.0841ZM58.0841 14.147C58.0841 13.7998 57.9132 13.5174 57.6347 13.3372L57.0914 14.1768C57.1007 14.1828 57.1036 14.186 57.1028 14.1851C57.1017 14.184 57.098 14.1798 57.0938 14.1725C57.0896 14.1651 57.0867 14.1575 57.0852 14.1513C57.0837 14.1453 57.0841 14.1433 57.0841 14.147H58.0841ZM57.6347 13.3372C57.3864 13.1765 57.0987 13.114 56.8041 13.114V14.114C56.9601 14.114 57.0451 14.1468 57.0914 14.1768L57.6347 13.3372ZM56.8041 13.114C56.5798 13.114 56.3601 13.1478 56.1465 13.2152L56.4476 14.1688C56.5634 14.1322 56.6816 14.114 56.8041 14.114V13.114ZM56.7971 13.692V13.367H55.7971V13.692H56.7971ZM56.2971 13.867H59.1051V12.867H56.2971V13.867ZM67.596 13.757L68.0899 13.835L68.092 13.8218L68.0933 13.8084L67.596 13.757ZM67.739 15.59V16.09H68.4942L68.1993 15.3947L67.739 15.59ZM67.531 15.59L67.0881 15.822L67.2285 16.09H67.531V15.59ZM67.323 14.875L67.8177 14.8023L67.816 14.7909L67.8138 14.7796L67.323 14.875ZM67.076 14.147L66.6418 14.3951L66.6472 14.4042L67.076 14.147ZM66.439 13.692L66.6159 13.2244L66.6159 13.2244L66.439 13.692ZM64.619 13.536L64.557 13.0399L64.119 13.0946V13.536H64.619ZM64.749 22.623L64.379 22.9593L64.395 22.977L64.4127 22.993L64.749 22.623ZM65.594 22.675H66.094V21.9928L65.4434 22.1982L65.594 22.675ZM65.594 23V23.5H66.094V23H65.594ZM62.669 23H62.169V23.5H62.669V23ZM62.669 22.675L62.8127 22.1961L62.169 22.003V22.675H62.669ZM63.501 22.623L63.8545 22.9766L63.8545 22.9766L63.501 22.623ZM63.644 13.536H64.144V13.0946L63.706 13.0399L63.644 13.536ZM61.2 14.147L61.6288 14.4043L61.6341 14.3951L61.2 14.147ZM60.953 14.875L60.4622 14.7796L60.46 14.7909L60.4583 14.8023L60.953 14.875ZM60.745 15.59V16.09H61.0475L61.1879 15.822L60.745 15.59ZM60.537 15.59L60.0767 15.3947L59.7817 16.09H60.537V15.59ZM60.68 13.757L60.1826 13.8084L60.184 13.8218L60.1861 13.835L60.68 13.757ZM60.641 13.38V12.88H60.0866L60.1436 13.4314L60.641 13.38ZM67.635 13.38L68.1323 13.4314L68.1894 12.88H67.635V13.38ZM67.1021 13.679C67.0704 13.8796 67.057 14.1206 67.057 14.394H68.057C68.057 14.1474 68.0695 13.9638 68.0899 13.835L67.1021 13.679ZM67.057 14.394C67.057 14.9346 67.1196 15.4102 67.2787 15.7853L68.1993 15.3947C68.1157 15.1978 68.057 14.8761 68.057 14.394H67.057ZM67.739 15.09H67.531V16.09H67.739V15.09ZM67.9739 15.358C67.9135 15.2427 67.8562 15.0641 67.8177 14.8023L66.8283 14.9477C66.8765 15.2753 66.9578 15.5733 67.0881 15.822L67.9739 15.358ZM67.8138 14.7796C67.7476 14.4393 67.6508 14.1332 67.5047 13.8898L66.6472 14.4042C66.7092 14.5075 66.777 14.6867 66.8322 14.9704L67.8138 14.7796ZM67.5101 13.8989C67.3218 13.5694 66.9811 13.3625 66.6159 13.2244L66.262 14.1596C66.5382 14.2641 66.6222 14.3606 66.6419 14.3951L67.5101 13.8989ZM66.6159 13.2244C66.209 13.0704 65.6546 13.01 64.996 13.01V14.01C65.6201 14.01 66.0277 14.071 66.262 14.1596L66.6159 13.2244ZM64.996 13.01C64.8584 13.01 64.7116 13.0205 64.557 13.0399L64.681 14.0321C64.8038 14.0168 64.9083 14.01 64.996 14.01V13.01ZM64.119 13.536V22.22H65.119V13.536H64.119ZM64.119 22.22C64.119 22.4741 64.1834 22.7441 64.379 22.9593L65.119 22.2867C65.128 22.2966 65.1293 22.3032 65.1273 22.2972C65.1248 22.2895 65.119 22.266 65.119 22.22H64.119ZM64.4127 22.993C64.6234 23.1846 64.8857 23.253 65.139 23.253V22.253C65.0999 22.253 65.081 22.2478 65.0761 22.2462C65.0729 22.2451 65.0783 22.2466 65.0853 22.253L64.4127 22.993ZM65.139 23.253C65.3395 23.253 65.5426 23.2156 65.7446 23.1518L65.4434 22.1982C65.316 22.2384 65.2158 22.253 65.139 22.253V23.253ZM65.094 22.675V23H66.094V22.675H65.094ZM65.594 22.5H62.669V23.5H65.594V22.5ZM63.169 23V22.675H62.169V23H63.169ZM62.5253 23.1539C62.7285 23.2149 62.9305 23.253 63.124 23.253V22.253C63.0575 22.253 62.9562 22.2391 62.8127 22.1961L62.5253 23.1539ZM63.124 23.253C63.3743 23.253 63.6455 23.1856 63.8545 22.9766L63.1474 22.2694C63.1541 22.2628 63.1611 22.2574 63.1676 22.2534C63.174 22.2495 63.1782 22.248 63.1787 22.2478C63.1792 22.2477 63.1636 22.253 63.124 22.253V23.253ZM63.8545 22.9766C64.0684 22.7627 64.144 22.4863 64.144 22.22H63.144C63.144 22.2616 63.1382 22.2802 63.137 22.2835C63.1365 22.285 63.137 22.2834 63.1391 22.2799C63.1413 22.2764 63.1442 22.2727 63.1474 22.2694L63.8545 22.9766ZM64.144 22.22V13.536H63.144V22.22H64.144ZM63.706 13.0399C63.5533 13.0208 63.4104 13.01 63.28 13.01V14.01C63.3576 14.01 63.4574 14.0166 63.582 14.0321L63.706 13.0399ZM63.28 13.01C62.6214 13.01 62.067 13.0704 61.66 13.2244L62.0139 14.1596C62.2483 14.071 62.6559 14.01 63.28 14.01V13.01ZM61.66 13.2244C61.2948 13.3625 60.9542 13.5694 60.7659 13.8989L61.6341 14.3951C61.6538 14.3606 61.7378 14.2641 62.0139 14.1596L61.66 13.2244ZM60.7712 13.8898C60.6252 14.1332 60.5283 14.4393 60.4622 14.7796L61.4438 14.9704C61.499 14.6867 61.5668 14.5075 61.6287 14.4042L60.7712 13.8898ZM60.4583 14.8023C60.4198 15.0641 60.3624 15.2427 60.3021 15.358L61.1879 15.822C61.3182 15.5733 61.3995 15.2753 61.4477 14.9477L60.4583 14.8023ZM60.745 15.09H60.537V16.09H60.745V15.09ZM60.9973 15.7853C61.1564 15.4102 61.219 14.9346 61.219 14.394H60.219C60.219 14.8761 60.1603 15.1978 60.0767 15.3947L60.9973 15.7853ZM61.219 14.394C61.219 14.1206 61.2055 13.8796 61.1739 13.679L60.1861 13.835C60.2064 13.9638 60.219 14.1474 60.219 14.394H61.219ZM61.1773 13.7056L61.1383 13.3286L60.1436 13.4314L60.1826 13.8084L61.1773 13.7056ZM60.641 13.88H67.635V12.88H60.641V13.88ZM67.1376 13.3286L67.0986 13.7056L68.0933 13.8084L68.1323 13.4314L67.1376 13.3286ZM78.1543 13.705L78.0107 14.1839L78.6543 14.377V13.705H78.1543ZM77.3093 22.623L76.9394 22.9593L76.9554 22.977L76.973 22.993L77.3093 22.623ZM78.1543 22.675H78.6543V21.9928L78.0038 22.1982L78.1543 22.675ZM78.1543 23V23.5H78.6543V23H78.1543ZM75.2293 23H74.7293V23.5H75.2293V23ZM75.2293 22.675L75.373 22.1961L74.7293 22.003V22.675H75.2293ZM76.0613 22.623L75.7078 22.2694L75.7078 22.2694L76.0613 22.623ZM76.2043 17.761H76.7043V17.261H76.2043V17.761ZM71.3813 17.761V17.261H70.8813V17.761H71.3813ZM71.5113 22.623L71.1414 22.9593L71.1574 22.977L71.175 22.993L71.5113 22.623ZM72.3563 22.675H72.8563V21.9928L72.2058 22.1982L72.3563 22.675ZM72.3563 23V23.5H72.8563V23H72.3563ZM69.4313 23H68.9313V23.5H69.4313V23ZM69.4313 22.675L69.5819 22.1982L68.9313 21.9928V22.675H69.4313ZM70.2633 22.623L69.9098 22.2694L70.2633 22.623ZM70.2633 13.77L69.8934 14.1063L69.9094 14.124L69.927 14.14L70.2633 13.77ZM69.4313 13.705H68.9313V14.3872L69.5819 14.1818L69.4313 13.705ZM69.4313 13.38V12.88H68.9313V13.38H69.4313ZM72.3563 13.38H72.8563V12.88H72.3563V13.38ZM72.3563 13.705L72.2058 14.1818L72.8563 14.3872V13.705H72.3563ZM71.5113 13.77L71.1578 13.4164L71.1578 13.4164L71.5113 13.77ZM71.3813 17.501H70.8813V18.001H71.3813V17.501ZM76.2043 17.501V18.001H76.7043V17.501H76.2043ZM76.0613 13.77L75.6914 14.1063L75.7074 14.124L75.725 14.14L76.0613 13.77ZM75.2293 13.705H74.7293V14.377L75.373 14.1839L75.2293 13.705ZM75.2293 13.38V12.88H74.7293V13.38H75.2293ZM78.1543 13.38H78.6543V12.88H78.1543V13.38ZM78.298 13.2261C78.0948 13.1651 77.8929 13.127 77.6993 13.127V14.127C77.7658 14.127 77.8671 14.1409 78.0107 14.1839L78.298 13.2261ZM77.6993 13.127C77.4333 13.127 77.1649 13.2073 76.9558 13.4164L77.6629 14.1236C77.661 14.1254 77.6584 14.1276 77.6552 14.1296C77.6521 14.1316 77.6502 14.1323 77.6505 14.1322C77.651 14.132 77.6649 14.127 77.6993 14.127V13.127ZM76.9558 13.4164C76.7423 13.63 76.6793 13.9096 76.6793 14.16H77.6793C77.6793 14.1135 77.6853 14.0932 77.6862 14.0906C77.6864 14.0898 77.6852 14.0937 77.6812 14.1004C77.6771 14.1073 77.671 14.1154 77.6629 14.1236L76.9558 13.4164ZM76.6793 14.16V22.22H77.6793V14.16H76.6793ZM76.6793 22.22C76.6793 22.4741 76.7437 22.7441 76.9394 22.9593L77.6793 22.2867C77.6883 22.2966 77.6896 22.3032 77.6877 22.2972C77.6852 22.2895 77.6793 22.266 77.6793 22.22H76.6793ZM76.973 22.993C77.1838 23.1846 77.446 23.253 77.6993 23.253V22.253C77.6602 22.253 77.6414 22.2478 77.6364 22.2462C77.6332 22.2451 77.6386 22.2466 77.6457 22.253L76.973 22.993ZM77.6993 23.253C77.8998 23.253 78.1029 23.2156 78.3049 23.1518L78.0038 22.1982C77.8764 22.2384 77.7762 22.253 77.6993 22.253V23.253ZM77.6543 22.675V23H78.6543V22.675H77.6543ZM78.1543 22.5H75.2293V23.5H78.1543V22.5ZM75.7293 23V22.675H74.7293V23H75.7293ZM75.0857 23.1539C75.2888 23.2149 75.4908 23.253 75.6843 23.253V22.253C75.6179 22.253 75.5165 22.2391 75.373 22.1961L75.0857 23.1539ZM75.6843 23.253C75.9347 23.253 76.2058 23.1856 76.4149 22.9766L75.7078 22.2694C75.7144 22.2628 75.7214 22.2574 75.7279 22.2534C75.7343 22.2495 75.7385 22.248 75.7391 22.2478C75.7395 22.2477 75.7239 22.253 75.6843 22.253V23.253ZM76.4149 22.9766C76.6287 22.7627 76.7043 22.4863 76.7043 22.22H75.7043C75.7043 22.2616 75.6985 22.2802 75.6974 22.2835C75.6968 22.285 75.6973 22.2834 75.6994 22.2799C75.7016 22.2764 75.7046 22.2727 75.7078 22.2694L76.4149 22.9766ZM76.7043 22.22V17.761H75.7043V22.22H76.7043ZM76.2043 17.261H71.3813V18.261H76.2043V17.261ZM70.8813 17.761V22.22H71.8813V17.761H70.8813ZM70.8813 22.22C70.8813 22.4741 70.9457 22.7441 71.1414 22.9593L71.8813 22.2867C71.8903 22.2966 71.8916 22.3032 71.8897 22.2972C71.8872 22.2895 71.8813 22.266 71.8813 22.22H70.8813ZM71.175 22.993C71.3902 23.1886 71.6602 23.253 71.9143 23.253V22.253C71.8684 22.253 71.8448 22.2471 71.8371 22.2446C71.8312 22.2427 71.8378 22.244 71.8477 22.253L71.175 22.993ZM71.9143 23.253C72.109 23.253 72.3085 23.2144 72.5069 23.1518L72.2058 22.1982C72.0748 22.2396 71.9796 22.253 71.9143 22.253V23.253ZM71.8563 22.675V23H72.8563V22.675H71.8563ZM72.3563 22.5H69.4313V23.5H72.3563V22.5ZM69.9313 23V22.675H68.9313V23H69.9313ZM69.2808 23.1518C69.4827 23.2156 69.6858 23.253 69.8863 23.253V22.253C69.8095 22.253 69.7093 22.2384 69.5819 22.1982L69.2808 23.1518ZM69.8863 23.253C70.1367 23.253 70.4078 23.1856 70.6169 22.9766L69.9098 22.2694C69.9164 22.2628 69.9234 22.2574 69.9299 22.2534C69.9363 22.2495 69.9405 22.248 69.9411 22.2478C69.9415 22.2477 69.9259 22.253 69.8863 22.253V23.253ZM70.6169 22.9766C70.8307 22.7627 70.9063 22.4863 70.9063 22.22H69.9063C69.9063 22.2616 69.9005 22.2802 69.8994 22.2835C69.8988 22.285 69.8993 22.2834 69.9014 22.2799C69.9036 22.2764 69.9066 22.2727 69.9098 22.2694L70.6169 22.9766ZM70.9063 22.22V14.16H69.9063V22.22H70.9063ZM70.9063 14.16C70.9063 13.8967 70.8317 13.611 70.5997 13.4L69.927 14.14C69.9198 14.1334 69.9135 14.126 69.9086 14.1185C69.9038 14.1113 69.9017 14.1061 69.9011 14.1046C69.9004 14.1026 69.9063 14.1179 69.9063 14.16H70.9063ZM70.6333 13.4337C70.427 13.2068 70.1502 13.127 69.8863 13.127V14.127C69.9213 14.127 69.9317 14.1321 69.9268 14.1302C69.9241 14.1292 69.9186 14.1268 69.9117 14.1222C69.9048 14.1175 69.8985 14.112 69.8934 14.1063L70.6333 13.4337ZM69.8863 13.127C69.6858 13.127 69.4827 13.1644 69.2808 13.2282L69.5819 14.1818C69.7093 14.1416 69.8095 14.127 69.8863 14.127V13.127ZM69.9313 13.705V13.38H68.9313V13.705H69.9313ZM69.4313 13.88H72.3563V12.88H69.4313V13.88ZM71.8563 13.38V13.705H72.8563V13.38H71.8563ZM72.5069 13.2282C72.3049 13.1644 72.1018 13.127 71.9013 13.127V14.127C71.9782 14.127 72.0784 14.1416 72.2058 14.1818L72.5069 13.2282ZM71.9013 13.127C71.6353 13.127 71.3669 13.2073 71.1578 13.4164L71.8649 14.1236C71.863 14.1254 71.8604 14.1276 71.8572 14.1296C71.8541 14.1316 71.8522 14.1323 71.8525 14.1322C71.853 14.132 71.8669 14.127 71.9013 14.127V13.127ZM71.1578 13.4164C70.9443 13.63 70.8813 13.9096 70.8813 14.16H71.8813C71.8813 14.1135 71.8873 14.0932 71.8882 14.0906C71.8884 14.0898 71.8872 14.0937 71.8832 14.1004C71.8791 14.1073 71.873 14.1154 71.8649 14.1236L71.1578 13.4164ZM70.8813 14.16V17.501H71.8813V14.16H70.8813ZM71.3813 18.001H76.2043V17.001H71.3813V18.001ZM76.7043 17.501V14.16H75.7043V17.501H76.7043ZM76.7043 14.16C76.7043 13.8967 76.6297 13.611 76.3977 13.4L75.725 14.14C75.7178 14.1334 75.7115 14.126 75.7066 14.1185C75.7018 14.1113 75.6997 14.1061 75.6991 14.1046C75.6984 14.1026 75.7043 14.1179 75.7043 14.16H76.7043ZM76.4313 13.4337C76.225 13.2068 75.9482 13.127 75.6843 13.127V14.127C75.7193 14.127 75.7297 14.1321 75.7248 14.1302C75.7221 14.1292 75.7166 14.1268 75.7097 14.1222C75.7028 14.1175 75.6965 14.112 75.6914 14.1063L76.4313 13.4337ZM75.6843 13.127C75.4908 13.127 75.2888 13.1651 75.0857 13.2261L75.373 14.1839C75.5165 14.1409 75.6179 14.127 75.6843 14.127V13.127ZM75.7293 13.705V13.38H74.7293V13.705H75.7293ZM75.2293 13.88H78.1543V12.88H75.2293V13.88ZM77.6543 13.38V13.705H78.6543V13.38H77.6543ZM87.371 22.48L87.8538 22.35L87.8518 22.3425L87.8496 22.3351L87.371 22.48ZM88.489 22.675H88.989V21.967L88.3218 22.2038L88.489 22.675ZM88.489 23V23.5H88.989V23H88.489ZM85.356 23H84.856V23.5H85.356V23ZM85.356 22.675L85.519 22.2023L84.856 21.9737V22.675H85.356ZM86.305 22.48L85.8282 22.6306L85.8307 22.6381L86.305 22.48ZM85.135 18.775L85.6118 18.6244L85.5015 18.275H85.135V18.775ZM82.379 18.775V18.275H82.007L81.9001 18.6313L82.379 18.775ZM81.482 21.895L81.9635 22.0298L81.9641 22.0276L81.482 21.895ZM81.391 22.22L81.8654 22.3781L81.8692 22.3666L81.8725 22.3548L81.391 22.22ZM82.431 22.675H82.931V21.9728L82.2675 22.2025L82.431 22.675ZM82.431 23V23.5H82.931V23H82.431ZM79.714 23H79.214V23.5H79.714V23ZM79.714 22.675L79.8896 22.2068L79.214 21.9535V22.675H79.714ZM80.871 22.48L81.3107 22.7181L81.3146 22.7109L81.3182 22.7036L80.871 22.48ZM81.027 22.103L81.5015 22.2612L81.505 22.2497L81.027 22.103ZM83.783 13.12V12.62H83.4134L83.305 12.9733L83.783 13.12ZM84.537 13.12L85.0156 12.9751L84.908 12.62H84.537V13.12ZM82.444 18.541L81.9645 18.3992L81.7748 19.041H82.444V18.541ZM85.057 18.541V19.041H85.7401L85.5336 18.3899L85.057 18.541ZM83.705 14.277L84.1816 14.1259L83.6884 12.5702L83.2255 14.1352L83.705 14.277ZM86.8882 22.61C86.9418 22.8091 87.0511 23.0018 87.2408 23.1388C87.4267 23.2731 87.6403 23.318 87.839 23.318V22.318C87.8262 22.318 87.8169 22.3173 87.8107 22.3165C87.8076 22.3161 87.8053 22.3157 87.8039 22.3155C87.8024 22.3152 87.8017 22.315 87.8017 22.315C87.8024 22.3152 87.8126 22.3183 87.8263 22.3282C87.8328 22.3329 87.8388 22.3382 87.8441 22.3438C87.8493 22.3494 87.853 22.3544 87.8553 22.358C87.86 22.3653 87.8578 22.3647 87.8538 22.35L86.8882 22.61ZM87.839 23.318C88.0876 23.318 88.3672 23.2488 88.6562 23.1462L88.3218 22.2038C88.0736 22.2919 87.9197 22.318 87.839 22.318V23.318ZM87.989 22.675V23H88.989V22.675H87.989ZM88.489 22.5H85.356V23.5H88.489V22.5ZM85.856 23V22.675H84.856V23H85.856ZM85.193 23.1477C85.4749 23.2449 85.7493 23.305 86.006 23.305V22.305C85.8987 22.305 85.7398 22.2785 85.519 22.2023L85.193 23.1477ZM86.006 23.305C86.1538 23.305 86.3542 23.2816 86.529 23.1578C86.7354 23.0116 86.818 22.7908 86.818 22.584H85.818C85.818 22.5622 85.822 22.5191 85.8461 22.4678C85.8715 22.4139 85.9098 22.3709 85.951 22.3417C86.0218 22.2916 86.0662 22.305 86.006 22.305V23.305ZM86.818 22.584C86.818 22.5144 86.8119 22.4196 86.7794 22.3219L85.8307 22.6381C85.8222 22.6127 85.8195 22.5944 85.8186 22.5875C85.8177 22.5801 85.818 22.5784 85.818 22.584H86.818ZM86.7818 22.3294L85.6118 18.6244L84.6582 18.9256L85.8282 22.6306L86.7818 22.3294ZM85.135 18.275H82.379V19.275H85.135V18.275ZM81.9001 18.6313C81.587 19.675 81.2869 20.7187 80.9999 21.7624L81.9641 22.0276C82.2491 20.9913 82.547 19.955 82.8579 18.9187L81.9001 18.6313ZM81.0005 21.7602L80.9095 22.0852L81.8725 22.3548L81.9635 22.0298L81.0005 21.7602ZM80.9167 22.0619C80.8768 22.1814 80.865 22.3041 80.865 22.415H81.865C81.865 22.3941 81.8662 22.3808 81.8671 22.3738C81.8681 22.3667 81.8684 22.369 81.8654 22.3781L80.9167 22.0619ZM80.865 22.415C80.865 22.6498 80.9432 22.9058 81.1684 23.0871C81.3728 23.2518 81.623 23.292 81.833 23.292V22.292C81.7869 22.292 81.7641 22.2872 81.7579 22.2855C81.7528 22.2842 81.7704 22.288 81.7957 22.3084C81.8232 22.3305 81.8443 22.3599 81.8563 22.3888C81.867 22.4146 81.865 22.427 81.865 22.415H80.865ZM81.833 23.292C82.0786 23.292 82.335 23.2374 82.5946 23.1475L82.2675 22.2025C82.0764 22.2686 81.9341 22.292 81.833 22.292V23.292ZM81.931 22.675V23H82.931V22.675H81.931ZM82.431 22.5H79.714V23.5H82.431V22.5ZM80.214 23V22.675H79.214V23H80.214ZM79.5385 23.1432C79.7935 23.2388 80.0524 23.292 80.312 23.292V22.292C80.1903 22.292 80.0506 22.2672 79.8896 22.2068L79.5385 23.1432ZM80.312 23.292C80.5088 23.292 80.7082 23.2523 80.8905 23.1506C81.0753 23.0474 81.2142 22.8962 81.3107 22.7181L80.4314 22.2419C80.4151 22.2718 80.4046 22.2766 80.4031 22.2774C80.3991 22.2797 80.3752 22.292 80.312 22.292V23.292ZM81.3182 22.7036C81.3896 22.5609 81.4506 22.4133 81.5014 22.2611L80.5527 21.9449C80.5168 22.0527 80.4738 22.1564 80.4238 22.2564L81.3182 22.7036ZM81.505 22.2497L84.261 13.2667L83.305 12.9733L80.549 21.9563L81.505 22.2497ZM83.783 13.62H84.537V12.62H83.783V13.62ZM84.0585 13.2649L86.8925 22.6249L87.8496 22.3351L85.0156 12.9751L84.0585 13.2649ZM82.444 19.041H85.057V18.041H82.444V19.041ZM85.5336 18.3899L84.1816 14.1259L83.2284 14.4281L84.5804 18.6921L85.5336 18.3899ZM83.2255 14.1352L81.9645 18.3992L82.9235 18.6828L84.1845 14.4188L83.2255 14.1352ZM99.8281 20.062L100.168 20.4284L101.101 19.562H99.8281V20.062ZM99.5811 20.595L99.0889 20.5071L99.0873 20.5157L99.0861 20.5243L99.5811 20.595ZM99.5291 23V23.5H100.029V23H99.5291ZM94.3421 23H93.8421V23.5H94.3421V23ZM94.3421 22.675L94.4926 22.1982L93.8421 21.9928V22.675H94.3421ZM95.1741 22.623L94.8205 22.2694L95.1741 22.623ZM95.1741 13.77L94.8041 14.1063L94.8201 14.124L94.8377 14.14L95.1741 13.77ZM94.3421 13.705H93.8421V14.3872L94.4926 14.1818L94.3421 13.705ZM94.3421 13.38V12.88H93.8421V13.38H94.3421ZM97.2671 13.38H97.7671V12.88H97.2671V13.38ZM97.2671 13.705L97.1165 14.1818L97.7671 14.3872V13.705H97.2671ZM96.4221 13.77L96.0685 13.4164L96.0685 13.4164L96.4221 13.77ZM96.5521 22.506L96.9589 22.2154L96.9589 22.2154L96.5521 22.506ZM98.5541 22.675L98.7903 23.1159L98.8021 23.1091L98.5541 22.675ZM99.0351 22.168L99.5007 22.3502L99.5032 22.3436L99.0351 22.168ZM99.2301 21.297L99.7254 21.3661L99.7264 21.3572L99.2301 21.297ZM99.3471 20.595L99.8335 20.7108L99.8335 20.7108L99.3471 20.595ZM99.5811 20.062V19.562H99.3097L99.1618 19.7895L99.5811 20.062ZM99.4878 19.6956C99.2565 19.9104 99.1424 20.2074 99.0889 20.5071L100.073 20.6829C100.106 20.4973 100.157 20.4389 100.168 20.4284L99.4878 19.6956ZM99.0861 20.5243C99.0463 20.803 99.0291 21.1913 99.0291 21.674H100.029C100.029 21.2033 100.047 20.8723 100.076 20.6657L99.0861 20.5243ZM99.0291 21.674V23H100.029V21.674H99.0291ZM99.5291 22.5H94.3421V23.5H99.5291V22.5ZM94.8421 23V22.675H93.8421V23H94.8421ZM94.1915 23.1518C94.3935 23.2156 94.5966 23.253 94.7971 23.253V22.253C94.7202 22.253 94.62 22.2384 94.4926 22.1982L94.1915 23.1518ZM94.7971 23.253C95.0474 23.253 95.3185 23.1856 95.5276 22.9766L94.8205 22.2694C94.8271 22.2628 94.8342 22.2574 94.8407 22.2534C94.8471 22.2495 94.8513 22.248 94.8518 22.2478C94.8522 22.2477 94.8367 22.253 94.7971 22.253V23.253ZM95.5276 22.9766C95.7415 22.7627 95.8171 22.4863 95.8171 22.22H94.8171C94.8171 22.2616 94.8113 22.2802 94.8101 22.2835C94.8096 22.285 94.81 22.2834 94.8122 22.2799C94.8144 22.2764 94.8173 22.2727 94.8205 22.2694L95.5276 22.9766ZM95.8171 22.22V14.16H94.8171V22.22H95.8171ZM95.8171 14.16C95.8171 13.8967 95.7425 13.611 95.5104 13.4L94.8377 14.14C94.8305 14.1334 94.8242 14.126 94.8193 14.1185C94.8145 14.1113 94.8124 14.1061 94.8119 14.1046C94.8111 14.1026 94.8171 14.1179 94.8171 14.16H95.8171ZM95.544 13.4337C95.3378 13.2068 95.0609 13.127 94.7971 13.127V14.127C94.832 14.127 94.8425 14.1321 94.8375 14.1302C94.8348 14.1292 94.8293 14.1268 94.8225 14.1222C94.8155 14.1175 94.8092 14.112 94.8041 14.1063L95.544 13.4337ZM94.7971 13.127C94.5966 13.127 94.3935 13.1644 94.1915 13.2282L94.4926 14.1818C94.62 14.1416 94.7202 14.127 94.7971 14.127V13.127ZM94.8421 13.705V13.38H93.8421V13.705H94.8421ZM94.3421 13.88H97.2671V12.88H94.3421V13.88ZM96.7671 13.38V13.705H97.7671V13.38H96.7671ZM97.4176 13.2282C97.2157 13.1644 97.0126 13.127 96.8121 13.127V14.127C96.8889 14.127 96.9891 14.1416 97.1165 14.1818L97.4176 13.2282ZM96.8121 13.127C96.546 13.127 96.2776 13.2073 96.0685 13.4164L96.7756 14.1236C96.7738 14.1254 96.7711 14.1276 96.768 14.1296C96.7649 14.1316 96.763 14.1323 96.7632 14.1322C96.7637 14.132 96.7776 14.127 96.8121 14.127V13.127ZM96.0685 13.4164C95.855 13.63 95.7921 13.9096 95.7921 14.16H96.7921C96.7921 14.1135 96.7981 14.0932 96.7989 14.0906C96.7992 14.0898 96.798 14.0937 96.7939 14.1004C96.7898 14.1073 96.7837 14.1154 96.7756 14.1236L96.0685 13.4164ZM95.7921 14.16V21.375H96.7921V14.16H95.7921ZM95.7921 21.375C95.7921 21.924 95.8816 22.4276 96.1452 22.7966L96.9589 22.2154C96.8759 22.0991 96.7921 21.8487 96.7921 21.375H95.7921ZM96.1452 22.7966C96.4498 23.2231 96.9447 23.37 97.4621 23.37V22.37C97.1127 22.37 97.001 22.2742 96.9589 22.2154L96.1452 22.7966ZM97.4621 23.37C97.9757 23.37 98.4388 23.304 98.7902 23.1157L98.318 22.2343C98.184 22.306 97.9191 22.37 97.4621 22.37V23.37ZM98.8021 23.1091C99.1134 22.9313 99.3698 22.6846 99.5007 22.3502L98.5694 21.9858C98.5443 22.05 98.4801 22.1414 98.306 22.2409L98.8021 23.1091ZM99.5032 22.3436C99.6 22.0856 99.6712 21.7538 99.7253 21.3661L98.7349 21.2279C98.685 21.5855 98.6262 21.8344 98.5669 21.9924L99.5032 22.3436ZM99.7264 21.3572C99.7599 21.0811 99.7962 20.8675 99.8335 20.7108L98.8607 20.4792C98.8113 20.6865 98.7696 20.9409 98.7337 21.2368L99.7264 21.3572ZM99.8335 20.7108C99.8622 20.59 99.9156 20.4648 100 20.3345L99.1618 19.7895C99.0212 20.0058 98.9186 20.236 98.8607 20.4792L99.8335 20.7108ZM99.5811 20.562H99.8281V19.562H99.5811V20.562ZM108.537 20.062L108.877 20.4284L109.81 19.562H108.537V20.062ZM108.29 20.595L107.798 20.5071L107.796 20.5157L107.795 20.5243L108.29 20.595ZM108.238 23V23.5H108.738V23H108.238ZM101.647 23H101.147V23.5H101.647V23ZM101.647 22.675L101.798 22.1982L101.147 21.9928V22.675H101.647ZM102.479 22.623L102.125 22.2694L102.479 22.623ZM102.479 13.77L102.109 14.1063L102.125 14.124L102.143 14.14L102.479 13.77ZM101.647 13.705H101.147V14.3872L101.798 14.1818L101.647 13.705ZM101.647 13.38V12.88H101.147V13.38H101.647ZM107.692 13.38L108.189 13.4314L108.246 12.88H107.692V13.38ZM107.653 13.757L108.147 13.835L108.149 13.8218L108.15 13.8084L107.653 13.757ZM107.796 15.59V16.09H108.551L108.256 15.3947L107.796 15.59ZM107.588 15.59L107.145 15.822L107.285 16.09H107.588V15.59ZM107.38 14.875L107.875 14.8023L107.873 14.7909L107.871 14.7796L107.38 14.875ZM107.133 14.147L106.699 14.3951L106.704 14.4042L107.133 14.147ZM103.675 14.251L103.189 14.1352L103.186 14.144L103.185 14.1529L103.675 14.251ZM103.597 15.005L103.098 14.9787L103.097 14.9919V15.005H103.597ZM103.597 17.475H103.097V17.975H103.597V17.475ZM105.911 17.462L105.956 17.9599L105.975 17.9583L105.993 17.9552L105.911 17.462ZM106.145 17.345L105.765 17.0196L105.765 17.0196L106.145 17.345ZM106.171 16.448L105.681 16.5461L105.684 16.5616L105.688 16.5768L106.171 16.448ZM105.911 16.253H105.411V16.753H105.911V16.253ZM105.911 16.084V15.584H105.411V16.084H105.911ZM106.418 16.084H106.918V15.584H106.418V16.084ZM106.418 19.1V19.6H106.918V19.1H106.418ZM105.911 19.1H105.411V19.6H105.911V19.1ZM105.911 18.918V18.418H105.411V18.918H105.911ZM106.171 18.71L105.684 18.5955L105.682 18.6066L105.68 18.6179L106.171 18.71ZM106.041 17.813L105.831 18.267L105.852 18.2763L105.873 18.2839L106.041 17.813ZM105.391 17.722L105.404 17.222H105.391V17.722ZM103.597 17.722V17.222H103.097V17.722H103.597ZM103.597 21.375H103.097V21.3897L103.098 21.4044L103.597 21.375ZM103.701 22.116L103.217 22.2422L103.219 22.2476L103.701 22.116ZM104.104 22.636L103.812 23.0418L103.819 23.0471L104.104 22.636ZM106.834 22.636L107.02 23.1003L107.028 23.0966L106.834 22.636ZM107.627 22.038L108.057 22.2929L108.061 22.2861L107.627 22.038ZM107.991 21.063L108.475 21.1867L108.478 21.1775L107.991 21.063ZM108.355 20.062V19.562H108.076L107.929 19.8L108.355 20.062ZM108.197 19.6956C107.965 19.9104 107.851 20.2074 107.798 20.5071L108.782 20.6829C108.815 20.4973 108.866 20.4389 108.877 20.4284L108.197 19.6956ZM107.795 20.5243C107.755 20.803 107.738 21.1913 107.738 21.674H108.738C108.738 21.2033 108.755 20.8723 108.785 20.6657L107.795 20.5243ZM107.738 21.674V23H108.738V21.674H107.738ZM108.238 22.5H101.647V23.5H108.238V22.5ZM102.147 23V22.675H101.147V23H102.147ZM101.496 23.1518C101.698 23.2156 101.901 23.253 102.102 23.253V22.253C102.025 22.253 101.925 22.2384 101.798 22.1982L101.496 23.1518ZM102.102 23.253C102.352 23.253 102.623 23.1856 102.833 22.9766L102.125 22.2694C102.132 22.2628 102.139 22.2574 102.146 22.2534C102.152 22.2495 102.156 22.248 102.157 22.2478C102.157 22.2477 102.142 22.253 102.102 22.253V23.253ZM102.833 22.9766C103.046 22.7627 103.122 22.4863 103.122 22.22H102.122C102.122 22.2616 102.116 22.2802 102.115 22.2835C102.114 22.285 102.115 22.2834 102.117 22.2799C102.119 22.2764 102.122 22.2727 102.125 22.2694L102.833 22.9766ZM103.122 22.22V14.16H102.122V22.22H103.122ZM103.122 14.16C103.122 13.8967 103.047 13.611 102.815 13.4L102.143 14.14C102.135 14.1334 102.129 14.126 102.124 14.1185C102.119 14.1113 102.117 14.1061 102.117 14.1046C102.116 14.1026 102.122 14.1179 102.122 14.16H103.122ZM102.849 13.4337C102.643 13.2068 102.366 13.127 102.102 13.127V14.127C102.137 14.127 102.147 14.1321 102.142 14.1302C102.14 14.1292 102.134 14.1268 102.127 14.1222C102.12 14.1175 102.114 14.112 102.109 14.1063L102.849 13.4337ZM102.102 13.127C101.901 13.127 101.698 13.1644 101.496 13.2282L101.798 14.1818C101.925 14.1416 102.025 14.127 102.102 14.127V13.127ZM102.147 13.705V13.38H101.147V13.705H102.147ZM101.647 13.88H107.692V12.88H101.647V13.88ZM107.195 13.3286L107.156 13.7056L108.15 13.8084L108.189 13.4314L107.195 13.3286ZM107.159 13.679C107.127 13.8796 107.114 14.1206 107.114 14.394H108.114C108.114 14.1474 108.127 13.9638 108.147 13.835L107.159 13.679ZM107.114 14.394C107.114 14.9346 107.177 15.4102 107.336 15.7853L108.256 15.3947C108.173 15.1978 108.114 14.8761 108.114 14.394H107.114ZM107.796 15.09H107.588V16.09H107.796V15.09ZM108.031 15.358C107.971 15.2427 107.913 15.0641 107.875 14.8023L106.885 14.9477C106.933 15.2753 107.015 15.5733 107.145 15.822L108.031 15.358ZM107.871 14.7796C107.805 14.4393 107.708 14.1332 107.562 13.8898L106.704 14.4042C106.766 14.5075 106.834 14.6867 106.889 14.9704L107.871 14.7796ZM107.567 13.8989C107.379 13.5694 107.038 13.3625 106.673 13.2244L106.319 14.1596C106.595 14.2641 106.679 14.3606 106.699 14.3951L107.567 13.8989ZM106.673 13.2244C106.266 13.0704 105.712 13.01 105.053 13.01V14.01C105.677 14.01 106.085 14.071 106.319 14.1596L106.673 13.2244ZM105.053 13.01C104.559 13.01 104.091 13.0897 103.752 13.344L104.352 14.144C104.429 14.0863 104.628 14.01 105.053 14.01V13.01ZM103.752 13.344C103.487 13.543 103.268 13.8023 103.189 14.1352L104.161 14.3668C104.169 14.3357 104.201 14.257 104.352 14.144L103.752 13.344ZM103.185 14.1529C103.143 14.3621 103.115 14.6421 103.098 14.9787L104.096 15.0313C104.113 14.7092 104.138 14.4865 104.165 14.3491L103.185 14.1529ZM103.097 15.005V17.475H104.097V15.005H103.097ZM103.597 17.975H105.391V16.975H103.597V17.975ZM105.391 17.975C105.641 17.975 105.835 17.9709 105.956 17.9599L105.866 16.9641C105.796 16.9704 105.644 16.975 105.391 16.975V17.975ZM105.993 17.9552C106.176 17.9248 106.375 17.8452 106.525 17.6704L105.765 17.0196C105.787 16.9949 105.809 16.9801 105.824 16.9725C105.838 16.9657 105.841 16.9667 105.829 16.9688L105.993 17.9552ZM106.525 17.6704C106.697 17.4689 106.723 17.2107 106.723 17.033H105.723C105.723 17.0554 105.722 17.0721 105.721 17.0839C105.72 17.0958 105.718 17.1008 105.718 17.1002C105.719 17.0997 105.721 17.0912 105.727 17.0773C105.734 17.0633 105.746 17.0425 105.765 17.0196L106.525 17.6704ZM106.723 17.033C106.723 16.7619 106.706 16.5139 106.654 16.3192L105.688 16.5768C105.705 16.6421 105.723 16.7841 105.723 17.033H106.723ZM106.661 16.3499C106.63 16.1925 106.549 16.0237 106.386 15.9018C106.23 15.7846 106.054 15.753 105.911 15.753V16.753C105.915 16.753 105.856 16.7539 105.786 16.7017C105.711 16.6448 105.686 16.5734 105.681 16.5461L106.661 16.3499ZM106.411 16.253V16.084H105.411V16.253H106.411ZM105.911 16.584H106.418V15.584H105.911V16.584ZM105.918 16.084V19.1H106.918V16.084H105.918ZM106.418 18.6H105.911V19.6H106.418V18.6ZM106.411 19.1V18.918H105.411V19.1H106.411ZM105.911 19.418C106.061 19.418 106.242 19.3823 106.399 19.2564C106.559 19.1285 106.633 18.9564 106.662 18.8021L105.68 18.6179C105.682 18.6023 105.701 18.5342 105.774 18.4756C105.845 18.4191 105.908 18.418 105.911 18.418V19.418ZM106.658 18.8245C106.705 18.6214 106.723 18.3684 106.723 18.086H105.723C105.723 18.3409 105.706 18.5039 105.684 18.5955L106.658 18.8245ZM106.723 18.086C106.723 17.9443 106.692 17.7835 106.593 17.6364C106.493 17.4862 106.352 17.3933 106.209 17.3421L105.873 18.2839C105.851 18.276 105.801 18.2503 105.761 18.1911C105.724 18.135 105.723 18.089 105.723 18.086H106.723ZM106.25 17.359C106.128 17.3026 105.989 17.2737 105.863 17.2561C105.73 17.2374 105.576 17.2268 105.404 17.2222L105.377 18.2218C105.527 18.2259 105.641 18.2347 105.725 18.2464C105.815 18.2591 105.841 18.2714 105.831 18.267L106.25 17.359ZM105.391 17.222H103.597V18.222H105.391V17.222ZM103.097 17.722V21.375H104.097V17.722H103.097ZM103.098 21.4044C103.116 21.719 103.154 22.0008 103.217 22.2422L104.185 21.9898C104.144 21.8325 104.112 21.6204 104.096 21.3456L103.098 21.4044ZM103.219 22.2476C103.31 22.582 103.535 22.8423 103.812 23.0418L104.396 22.2302C104.24 22.1177 104.196 22.0313 104.183 21.9844L103.219 22.2476ZM103.819 23.0471C104.168 23.2883 104.632 23.37 105.131 23.37V22.37C104.711 22.37 104.491 22.2957 104.389 22.2249L103.819 23.0471ZM105.131 23.37C105.898 23.37 106.541 23.2915 107.02 23.1002L106.648 22.1718C106.346 22.2925 105.854 22.37 105.131 22.37V23.37ZM107.028 23.0966C107.466 22.912 107.841 22.6574 108.057 22.2929L107.197 21.7831C107.135 21.8866 106.982 22.0307 106.639 22.1754L107.028 23.0966ZM108.061 22.2861C108.23 21.9901 108.365 21.618 108.475 21.1867L107.506 20.9393C107.409 21.3227 107.301 21.6006 107.193 21.7899L108.061 22.2861ZM108.478 21.1775C108.577 20.756 108.683 20.4825 108.781 20.324L107.929 19.8C107.749 20.0922 107.613 20.486 107.504 20.9485L108.478 21.1775ZM108.355 20.562H108.537V19.562H108.355V20.562ZM112.925 22.935L112.722 23.3916L112.725 23.3929L112.925 22.935ZM111.703 21.869L111.282 22.138L111.287 22.1463L111.703 21.869ZM111.196 19.919L110.696 19.919L110.696 19.9299L111.196 19.919ZM111.053 13.77L110.683 14.1063L110.699 14.124L110.717 14.14L111.053 13.77ZM110.221 13.705H109.721V14.3872L110.372 14.1818L110.221 13.705ZM110.221 13.38L110.235 12.8802L109.721 12.8667V13.38H110.221ZM110.715 13.393L110.735 12.8934L110.729 12.8932L110.715 13.393ZM112.665 13.393L112.652 12.8931L112.645 12.8934L112.665 13.393ZM113.146 13.38H113.646V12.8663L113.133 12.8802L113.146 13.38ZM113.146 13.705L112.996 14.1818L113.646 14.3872V13.705H113.146ZM112.301 13.77L111.948 13.4164L111.948 13.4164L112.301 13.77ZM112.535 21.635L112.088 21.8586L112.088 21.8586L112.535 21.635ZM113.445 22.688L113.701 22.2584L113.701 22.2584L113.445 22.688ZM116.578 21.999L117.016 22.2404L117.016 22.2404L116.578 21.999ZM116.916 13.757L116.633 14.1692L116.645 14.1768L116.916 13.757ZM115.863 13.692H115.363V14.3742L116.014 14.1688L115.863 13.692ZM115.863 13.38V12.88H115.363V13.38H115.863ZM118.632 13.38H119.132V12.88H118.632V13.38ZM118.632 13.692L118.489 14.1709L119.132 14.364V13.692H118.632ZM117.683 13.757L117.374 13.3638L117.367 13.3694L117.36 13.3753L117.683 13.757ZM117.514 19.763L118.014 19.7698V19.763H117.514ZM117.163 21.518L116.703 21.3219L116.701 21.3284L117.163 21.518ZM116.162 22.792L116.451 23.2005L116.452 23.1994L116.162 22.792ZM114.524 22.76C114.017 22.76 113.553 22.6643 113.126 22.4771L112.725 23.3929C113.286 23.639 113.887 23.76 114.524 23.76V22.76ZM113.129 22.4784C112.74 22.3047 112.403 22.0166 112.119 21.5916L111.287 22.1463C111.663 22.7094 112.14 23.132 112.722 23.3916L113.129 22.4784ZM112.125 21.6001C111.867 21.1965 111.712 20.6439 111.696 19.9081L110.696 19.9299C110.715 20.7888 110.898 21.5361 111.282 22.1379L112.125 21.6001ZM111.696 19.919V14.16H110.696V19.919H111.696ZM111.696 14.16C111.696 13.8967 111.622 13.611 111.39 13.4L110.717 14.14C110.71 14.1334 110.704 14.126 110.699 14.1185C110.694 14.1113 110.692 14.1061 110.691 14.1046C110.69 14.1026 110.696 14.1179 110.696 14.16H111.696ZM111.423 13.4337C111.217 13.2068 110.94 13.127 110.676 13.127V14.127C110.711 14.127 110.722 14.1321 110.717 14.1302C110.714 14.1292 110.709 14.1268 110.702 14.1222C110.695 14.1175 110.689 14.112 110.683 14.1063L111.423 13.4337ZM110.676 13.127C110.476 13.127 110.273 13.1644 110.071 13.2282L110.372 14.1818C110.499 14.1416 110.6 14.127 110.676 14.127V13.127ZM110.721 13.705V13.38H109.721V13.705H110.721ZM110.208 13.8798L110.702 13.8928L110.729 12.8932L110.235 12.8802L110.208 13.8798ZM110.695 13.8926C111.131 13.91 111.468 13.919 111.703 13.919V12.919C111.488 12.919 111.167 12.9107 110.735 12.8934L110.695 13.8926ZM111.703 13.919C111.939 13.919 112.268 13.91 112.686 13.8926L112.645 12.8934C112.231 12.9107 111.918 12.919 111.703 12.919V13.919ZM112.679 13.8928L113.16 13.8798L113.133 12.8802L112.652 12.8932L112.679 13.8928ZM112.646 13.38V13.705H113.646V13.38H112.646ZM113.297 13.2282C113.095 13.1644 112.892 13.127 112.691 13.127V14.127C112.768 14.127 112.868 14.1416 112.996 14.1818L113.297 13.2282ZM112.691 13.127C112.425 13.127 112.157 13.2073 111.948 13.4164L112.655 14.1236C112.653 14.1254 112.65 14.1276 112.647 14.1296C112.644 14.1316 112.642 14.1323 112.642 14.1322C112.643 14.132 112.657 14.127 112.691 14.127V13.127ZM111.948 13.4164C111.734 13.63 111.671 13.9096 111.671 14.16H112.671C112.671 14.1135 112.677 14.0932 112.678 14.0906C112.678 14.0898 112.677 14.0937 112.673 14.1004C112.669 14.1073 112.663 14.1154 112.655 14.1236L111.948 13.4164ZM111.671 14.16V19.763H112.671V14.16H111.671ZM111.671 19.763C111.671 20.5738 111.8 21.2815 112.088 21.8586L112.983 21.4114C112.786 21.0178 112.671 20.4776 112.671 19.763H111.671ZM112.088 21.8586C112.362 22.4057 112.723 22.84 113.19 23.1176L113.701 22.2584C113.44 22.1027 113.194 21.8349 112.983 21.4114L112.088 21.8586ZM113.19 23.1176C113.624 23.3763 114.089 23.513 114.576 23.513V22.513C114.284 22.513 113.995 22.4331 113.701 22.2584L113.19 23.1176ZM114.576 23.513C115.668 23.513 116.533 23.1173 117.016 22.2404L116.141 21.7576C115.879 22.2327 115.409 22.513 114.576 22.513V23.513ZM117.016 22.2404C117.435 21.481 117.637 20.6203 117.637 19.672H116.637C116.637 20.4744 116.467 21.165 116.141 21.7576L117.016 22.2404ZM117.637 19.672V14.147H116.637V19.672H117.637ZM117.637 14.147C117.637 13.7998 117.467 13.5174 117.188 13.3372L116.645 14.1768C116.654 14.1828 116.657 14.186 116.656 14.1851C116.655 14.184 116.651 14.1798 116.647 14.1725C116.643 14.1651 116.64 14.1575 116.638 14.1513C116.637 14.1453 116.637 14.1433 116.637 14.147H117.637ZM117.2 13.345C116.954 13.1758 116.663 13.114 116.37 13.114V14.114C116.528 14.114 116.602 14.1475 116.633 14.169L117.2 13.345ZM116.37 13.114C116.146 13.114 115.926 13.1478 115.713 13.2152L116.014 14.1688C116.13 14.1322 116.248 14.114 116.37 14.114V13.114ZM116.363 13.692V13.38H115.363V13.692H116.363ZM115.863 13.88H118.632V12.88H115.863V13.88ZM118.132 13.38V13.692H119.132V13.38H118.132ZM118.776 13.2131C118.566 13.1502 118.357 13.114 118.151 13.114V14.114C118.24 14.114 118.352 14.1298 118.489 14.1709L118.776 13.2131ZM118.151 13.114C117.876 13.114 117.603 13.1843 117.374 13.3638L117.992 14.1502C118.006 14.1391 118.046 14.114 118.151 14.114V13.114ZM117.36 13.3753C117.122 13.5773 117.014 13.8544 117.014 14.147H118.014C118.014 14.1343 118.015 14.1269 118.016 14.1239C118.017 14.121 118.017 14.1217 118.015 14.1248C118.014 14.128 118.012 14.1317 118.009 14.135C118.007 14.1383 118.005 14.1394 118.006 14.1387L117.36 13.3753ZM117.014 14.147V19.763H118.014V14.147H117.014ZM117.014 19.7562C117.007 20.34 116.9 20.8598 116.703 21.322L117.623 21.714C117.877 21.1189 118.005 20.4686 118.014 19.7698L117.014 19.7562ZM116.701 21.3284C116.519 21.7726 116.244 22.1206 115.872 22.3846L116.452 23.1994C116.983 22.8221 117.375 22.3207 117.626 21.7076L116.701 21.3284ZM115.874 22.3835C115.532 22.6248 115.092 22.76 114.524 22.76V23.76C115.256 23.76 115.909 23.5832 116.451 23.2005L115.874 22.3835ZM129.059 13.367H129.559V12.867H129.059V13.367ZM129.059 13.692L128.915 14.1709L129.559 14.364V13.692H129.059ZM128.032 13.757L127.749 13.345L127.742 13.3493L127.736 13.3538L128.032 13.757ZM127.837 23.26V23.76H128.337V23.26H127.837ZM127.538 23.26L127.117 23.5305L127.265 23.76H127.538V23.26ZM121.792 14.329L122.212 14.0585L121.289 12.6234L121.292 14.3298L121.792 14.329ZM121.805 22.22L122.305 22.22L122.305 22.2192L121.805 22.22ZM122.039 22.61L121.778 23.0368L121.788 23.0427L122.039 22.61ZM123.157 22.675H123.657V21.9928L123.006 22.1982L123.157 22.675ZM123.157 23V23.5H123.657V23H123.157ZM120.323 23H119.823V23.5H120.323V23ZM120.323 22.675L120.473 22.1982L119.823 21.9928V22.675H120.323ZM121.311 22.61L121.015 22.2068L121.008 22.2117L121.002 22.2168L121.311 22.61ZM120.323 13.705H119.823V14.377L120.466 14.1839L120.323 13.705ZM120.323 13.38V12.88H119.823V13.38H120.323ZM122.364 13.38L122.781 13.1046L122.633 12.88H122.364V13.38ZM127.538 21.219L127.12 21.4944L128.038 22.8842V21.219H127.538ZM127.317 13.757L127.045 14.1768L127.045 14.1768L127.317 13.757ZM126.251 13.692H125.751V14.3742L126.401 14.1688L126.251 13.692ZM126.251 13.367V12.867H125.751V13.367H126.251ZM128.559 13.367V13.692H129.559V13.367H128.559ZM129.202 13.2131C128.99 13.1493 128.776 13.114 128.565 13.114V14.114C128.665 14.114 128.781 14.1307 128.915 14.1709L129.202 13.2131ZM128.565 13.114C128.276 13.114 127.992 13.1779 127.749 13.345L128.315 14.169C128.349 14.1454 128.42 14.114 128.565 14.114V13.114ZM127.736 13.3538C127.474 13.5457 127.337 13.8271 127.337 14.147H128.337C128.337 14.1388 128.338 14.1361 128.337 14.1377C128.337 14.1395 128.336 14.1439 128.333 14.1496C128.33 14.1553 128.327 14.1596 128.325 14.1622C128.322 14.1646 128.323 14.1637 128.327 14.1602L127.736 13.3538ZM127.337 14.147V23.26H128.337V14.147H127.337ZM127.837 22.76H127.538V23.76H127.837V22.76ZM127.958 22.9895L122.212 14.0585L121.371 14.5995L127.117 23.5305L127.958 22.9895ZM121.292 14.3298L121.305 22.2208L122.305 22.2192L122.292 14.3282L121.292 14.3298ZM121.305 22.22C121.305 22.5807 121.493 22.8625 121.778 23.0366L122.299 22.1834C122.276 22.1692 122.282 22.1667 122.292 22.1838C122.297 22.1918 122.301 22.2007 122.303 22.2091C122.305 22.2172 122.305 22.2214 122.305 22.22H121.305ZM121.788 23.0427C122.045 23.1912 122.335 23.253 122.637 23.253V22.253C122.471 22.253 122.362 22.2195 122.289 22.1773L121.788 23.0427ZM122.637 23.253C122.867 23.253 123.091 23.22 123.307 23.1518L123.006 22.1982C122.893 22.234 122.77 22.253 122.637 22.253V23.253ZM122.657 22.675V23H123.657V22.675H122.657ZM123.157 22.5H120.323V23.5H123.157V22.5ZM120.823 23V22.675H119.823V23H120.823ZM120.172 23.1518C120.383 23.2184 120.599 23.253 120.817 23.253V22.253C120.706 22.253 120.592 22.2356 120.473 22.1982L120.172 23.1518ZM120.817 23.253C121.098 23.253 121.384 23.1884 121.62 23.0032L121.002 22.2168C120.995 22.2223 120.952 22.253 120.817 22.253V23.253ZM121.606 23.0132C121.868 22.8213 122.006 22.5399 122.006 22.22H121.006C121.006 22.2282 121.005 22.2309 121.005 22.2293C121.006 22.2275 121.007 22.2231 121.01 22.2174C121.013 22.2117 121.016 22.2074 121.018 22.2048C121.02 22.2024 121.02 22.2033 121.015 22.2068L121.606 23.0132ZM122.006 22.22V14.16H121.006V22.22H122.006ZM122.006 14.16C122.006 13.8401 121.868 13.5587 121.606 13.3668L121.015 14.1732C121.02 14.1767 121.02 14.1776 121.018 14.1752C121.016 14.1726 121.013 14.1683 121.01 14.1626C121.007 14.1569 121.006 14.1525 121.005 14.1507C121.005 14.1491 121.006 14.1518 121.006 14.16H122.006ZM121.606 13.3668C121.369 13.1925 121.087 13.127 120.804 13.127V14.127C120.936 14.127 120.993 14.1569 121.015 14.1732L121.606 13.3668ZM120.804 13.127C120.598 13.127 120.389 13.1632 120.179 13.2261L120.466 14.1839C120.603 14.1428 120.715 14.127 120.804 14.127V13.127ZM120.823 13.705V13.38H119.823V13.705H120.823ZM120.323 13.88H122.364V12.88H120.323V13.88ZM121.946 13.6554L127.12 21.4944L127.955 20.9436L122.781 13.1046L121.946 13.6554ZM128.038 21.219V14.147H127.038V21.219H128.038ZM128.038 14.147C128.038 13.7998 127.867 13.5174 127.588 13.3372L127.045 14.1768C127.054 14.1828 127.057 14.186 127.056 14.1851C127.055 14.184 127.052 14.1798 127.048 14.1725C127.043 14.1651 127.04 14.1575 127.039 14.1513C127.037 14.1453 127.038 14.1433 127.038 14.147H128.038ZM127.588 13.3372C127.34 13.1765 127.052 13.114 126.758 13.114V14.114C126.914 14.114 126.999 14.1468 127.045 14.1768L127.588 13.3372ZM126.758 13.114C126.534 13.114 126.314 13.1478 126.1 13.2152L126.401 14.1688C126.517 14.1322 126.635 14.114 126.758 14.114V13.114ZM126.751 13.692V13.367H125.751V13.692H126.751ZM126.251 13.867H129.059V12.867H126.251V13.867ZM133.162 22.571L132.872 22.9786L132.878 22.9829L133.162 22.571ZM131.589 20.712L131.14 20.9316L131.143 20.9376L131.589 20.712ZM131.55 15.668L131.097 15.4566L131.096 15.4588L131.55 15.668ZM133.058 13.809L132.769 13.4007L132.767 13.4025L133.058 13.809ZM136.932 13.588L136.681 14.0204L136.684 14.0221L136.932 13.588ZM138.167 14.615L137.766 14.9135L138.48 15.8734L138.661 14.6906L138.167 14.615ZM138.362 13.341V12.841H137.933L137.868 13.2654L138.362 13.341ZM138.583 13.341H139.083V12.841H138.583V13.341ZM138.583 16.24V16.74H139.083V16.24H138.583ZM138.167 16.24H137.667V16.74H138.167V16.24ZM137.829 14.875L137.383 15.1021L137.385 15.1057L137.829 14.875ZM136.802 13.796L136.54 14.2218L136.543 14.224L136.802 13.796ZM132.486 15.798L132.011 15.6399L132.011 15.6399L132.486 15.798ZM132.46 20.556L131.982 20.7023L131.982 20.7038L132.46 20.556ZM133.539 22.324L133.202 22.6934L133.205 22.6963L133.539 22.324ZM136.867 22.545L136.564 22.1471L136.564 22.1471L136.867 22.545ZM137.764 21.401L137.307 21.1979L137.305 21.202L137.764 21.401ZM137.985 19.087L137.5 19.2083L137.502 19.2177L137.505 19.227L137.985 19.087ZM137.673 18.775L137.666 19.275H137.673V18.775ZM136.724 18.762L136.731 18.262H136.724V18.762ZM135.788 18.84L135.548 18.4011L135.548 18.4011L135.788 18.84ZM135.645 19.152H135.145V19.1659L135.146 19.1797L135.645 19.152ZM135.71 19.919L135.235 20.0772L135.24 20.0899L135.71 19.919ZM135.944 20.075H136.444V19.6094L135.979 19.5763L135.944 20.075ZM135.944 20.244V20.744H136.444V20.244H135.944ZM135.437 20.244H134.937V20.744H135.437V20.244ZM135.437 18.515V18.015H134.937V18.515H135.437ZM138.934 18.515H139.434V18.015H138.934V18.515ZM138.934 21.726V22.226H139.434V21.726H138.934ZM138.362 21.908L138.125 21.4678L138.116 21.4722L138.108 21.477L138.362 21.908ZM137.894 22.207L138.175 22.6206L138.176 22.6197L137.894 22.207ZM136.607 22.974L136.823 23.4251L136.83 23.4212L136.607 22.974ZM135.372 22.76C134.668 22.76 134.03 22.5614 133.445 22.1591L132.878 22.9829C133.629 23.4993 134.464 23.76 135.372 23.76V22.76ZM133.451 22.1634C132.864 21.7457 132.391 21.1904 132.035 20.4864L131.143 20.9376C131.567 21.7762 132.143 22.4603 132.872 22.9786L133.451 22.1634ZM132.038 20.4924C131.691 19.7834 131.517 19.0182 131.517 18.19H130.517C130.517 19.1645 130.724 20.0806 131.14 20.9316L132.038 20.4924ZM131.517 18.19C131.517 17.347 131.681 16.5783 132.004 15.8772L131.096 15.4588C130.708 16.3003 130.517 17.213 130.517 18.19H131.517ZM132.003 15.8794C132.334 15.17 132.784 14.6203 133.349 14.2155L132.767 13.4025C132.049 13.9163 131.494 14.606 131.097 15.4566L132.003 15.8794ZM133.346 14.2173C133.91 13.8191 134.541 13.62 135.255 13.62V12.62C134.339 12.62 133.506 12.8802 132.769 13.4007L133.346 14.2173ZM135.255 13.62C135.741 13.62 136.214 13.7495 136.681 14.0204L137.183 13.1556C136.575 12.8025 135.93 12.62 135.255 12.62V13.62ZM136.684 14.0221C137.19 14.3113 137.541 14.612 137.766 14.9135L138.568 14.3165C138.238 13.8727 137.766 13.4887 137.18 13.1539L136.684 14.0221ZM138.661 14.6906L138.856 13.4166L137.868 13.2654L137.673 14.5393L138.661 14.6906ZM138.362 13.841H138.583V12.841H138.362V13.841ZM138.083 13.341V16.24H139.083V13.341H138.083ZM138.583 15.74H138.167V16.74H138.583V15.74ZM138.667 16.24C138.667 15.681 138.534 15.1471 138.272 14.6443L137.385 15.1057C137.574 15.4696 137.667 15.8457 137.667 16.24H138.667ZM138.274 14.6479C138.003 14.116 137.593 13.6894 137.06 13.368L136.543 14.224C136.93 14.4572 137.204 14.75 137.383 15.1021L138.274 14.6479ZM137.064 13.3702C136.516 13.0332 135.861 12.88 135.125 12.88V13.88C135.724 13.88 136.186 14.0042 136.54 14.2218L137.064 13.3702ZM135.125 12.88C134.388 12.88 133.738 13.1576 133.192 13.6827L133.885 14.4033C134.258 14.0444 134.665 13.88 135.125 13.88V12.88ZM133.192 13.6827C132.664 14.1911 132.275 14.8507 132.011 15.6399L132.96 15.9561C133.182 15.2893 133.495 14.7789 133.885 14.4033L133.192 13.6827ZM132.011 15.6399C131.75 16.423 131.622 17.2568 131.622 18.138H132.622C132.622 17.3552 132.736 16.629 132.96 15.9561L132.011 15.6399ZM131.622 18.138C131.622 19.0563 131.74 19.9122 131.982 20.7023L132.938 20.4097C132.729 19.7264 132.622 18.9704 132.622 18.138H131.622ZM131.982 20.7038C132.23 21.5048 132.633 22.1747 133.202 22.6934L133.876 21.9546C133.456 21.572 133.14 21.0632 132.937 20.4082L131.982 20.7038ZM133.205 22.6963C133.811 23.2399 134.568 23.5 135.437 23.5V22.5C134.78 22.5 134.272 22.3094 133.873 21.9517L133.205 22.6963ZM135.437 23.5C136.088 23.5 136.674 23.3196 137.17 22.9429L136.564 22.1471C136.262 22.3771 135.894 22.5 135.437 22.5V23.5ZM137.17 22.9429C137.636 22.5878 137.989 22.138 138.222 21.6L137.305 21.202C137.14 21.5827 136.895 21.8956 136.564 22.1471L137.17 22.9429ZM138.221 21.6041C138.455 21.077 138.576 20.5357 138.576 19.984H137.576C137.576 20.3856 137.489 20.789 137.307 21.1979L138.221 21.6041ZM138.576 19.984C138.576 19.578 138.545 19.2231 138.465 18.947L137.505 19.227C137.546 19.3669 137.576 19.61 137.576 19.984H138.576ZM138.47 18.9657C138.431 18.8116 138.36 18.6384 138.221 18.4994C138.069 18.3475 137.874 18.275 137.673 18.275V19.275C137.655 19.275 137.627 19.2719 137.594 19.2587C137.561 19.2453 137.534 19.226 137.514 19.2066C137.479 19.1716 137.486 19.1544 137.5 19.2083L138.47 18.9657ZM137.68 18.275L136.731 18.262L136.717 19.262L137.666 19.275L137.68 18.275ZM136.724 18.262C136.454 18.262 136.228 18.2686 136.052 18.2832C135.964 18.2905 135.881 18.3005 135.806 18.3148C135.742 18.3271 135.642 18.3499 135.548 18.4011L136.027 19.2789C135.981 19.3041 135.957 19.3041 135.994 19.297C136.021 19.2917 136.067 19.2855 136.135 19.2798C136.271 19.2684 136.465 19.262 136.724 19.262V18.262ZM135.548 18.4011C135.227 18.5764 135.145 18.9024 135.145 19.152H136.145C136.145 19.1212 136.15 19.1327 136.135 19.1653C136.127 19.1829 136.114 19.2047 136.094 19.2266C136.074 19.2488 136.05 19.2663 136.027 19.2789L135.548 18.4011ZM135.146 19.1797C135.154 19.3364 135.158 19.4319 135.158 19.477H136.158C136.158 19.4007 136.153 19.2796 136.144 19.1243L135.146 19.1797ZM135.158 19.477C135.158 19.6879 135.176 19.8979 135.235 20.0771L136.184 19.7609C136.175 19.7321 136.158 19.6475 136.158 19.477H135.158ZM135.24 20.0899C135.29 20.229 135.382 20.3555 135.517 20.4455C135.646 20.5318 135.786 20.565 135.908 20.5737L135.979 19.5763C135.98 19.5763 136.02 19.5792 136.072 19.6135C136.129 19.6515 136.164 19.7043 136.18 19.7481L135.24 20.0899ZM135.444 20.075V20.244H136.444V20.075H135.444ZM135.944 19.744H135.437V20.744H135.944V19.744ZM135.937 20.244V18.515H134.937V20.244H135.937ZM135.437 19.015H138.934V18.015H135.437V19.015ZM138.434 18.515V21.726H139.434V18.515H138.434ZM138.934 21.226C138.658 21.226 138.382 21.3295 138.125 21.4678L138.599 22.3482C138.793 22.2438 138.897 22.226 138.934 22.226V21.226ZM138.108 21.477C137.95 21.5703 137.784 21.6763 137.611 21.7943L138.176 22.6197C138.333 22.5124 138.479 22.419 138.615 22.339L138.108 21.477ZM137.613 21.7934C137.168 22.0958 136.758 22.3394 136.383 22.5268L136.83 23.4212C137.253 23.2099 137.701 22.9422 138.175 22.6206L137.613 21.7934ZM136.391 22.5229C136.057 22.6827 135.719 22.76 135.372 22.76V23.76C135.874 23.76 136.359 23.6466 136.823 23.4251L136.391 22.5229Z" fill="white"/>
</svg>
